<?xml version="1.0" encoding="utf-8"?>
<!-- Generator: Adobe Illustrator 23.0.2, SVG Export Plug-In . SVG Version: 6.00 Build 0)  -->
<svg version="1.1" id="Layer_1" xmlns="http://www.w3.org/2000/svg" xmlns:xlink="http://www.w3.org/1999/xlink" x="0px" y="0px"
	 viewBox="0 0 500 500" style="enable-background:new 0 0 500 500;" xml:space="preserve">
<style type="text/css">
	.st0{fill:#A0E6FB;}
	.st1{fill:#FFFA8B;}
	.st2{fill:#FFFFFF;}
	.st3{fill:#29ABE2;}
	.st4{fill:#999999;}
	.st5{fill:#C6C6C6;}
	.st6{fill:none;stroke:#000000;stroke-miterlimit:10;}
	.st7{stroke:#000000;stroke-miterlimit:10;}
	.st8{fill:#FFFFFF;stroke:#000000;stroke-width:1.2936;stroke-miterlimit:10;}
	.st9{fill:none;stroke:#000000;stroke-width:3;stroke-miterlimit:10;}
	.st10{fill:#00B7E5;}
	.st11{fill:#FFFFFF;stroke:#00B7E5;stroke-miterlimit:10;}
	.st12{fill:none;stroke:#00B7E5;stroke-miterlimit:10;}
	.st13{fill:#F5E663;}
	.st14{fill:none;stroke:#000000;stroke-width:1.0917;stroke-miterlimit:10;}
	.st15{fill:none;stroke:#000000;stroke-width:0.6952;stroke-miterlimit:10;}
	.st16{fill:none;stroke:#29ABE2;stroke-width:5;stroke-miterlimit:10;}
	.st17{fill:none;stroke:#29ABE2;stroke-width:3;stroke-miterlimit:10;}
	.st18{fill:#1A390C;}
	.st19{fill:#006837;}
	.st20{fill:none;stroke:#006837;stroke-width:2.584;stroke-miterlimit:10;}
	.st21{fill:none;stroke:#FFFF00;stroke-width:2.7757;stroke-miterlimit:10;}
	.st22{fill:none;stroke:#006837;stroke-width:0.8601;stroke-miterlimit:10;}
	.st23{fill:none;stroke:#FFFF00;stroke-width:0.9239;stroke-miterlimit:10;}
	.st24{fill:url(#SVGID_1_);}
	.st25{fill:url(#SVGID_2_);}
	.st26{fill:url(#SVGID_3_);}
	.st27{fill:url(#SVGID_4_);}
	.st28{fill:url(#SVGID_5_);}
	.st29{fill:url(#SVGID_6_);}
	.st30{fill:url(#SVGID_7_);}
	.st31{fill:url(#SVGID_8_);}
	.st32{fill:url(#SVGID_9_);}
	.st33{fill:url(#SVGID_10_);}
	.st34{fill:#0D3B02;}
	.st35{fill:#FFF18B;}
	.st36{fill:none;}
</style>
<g>
	<path class="st36" d="M240.3,403.5c1.4-6.7-1.9-12-4.5-17.6c-3.8-8.1-7.3-16.4-11-24.6c-0.4-1-0.7-2-1-3c0.1-0.1,0.1-0.1,0.2-0.2
		c3.6,6.5,7,13,10.6,19.4c1.9,3.3,3.6,6.7,5.8,9.9C244.2,392.9,242.7,398.2,240.3,403.5z"/>
	<path class="st36" d="M242.5,342.6c2.5-6.2,1.8-12.1-2-17.6c-2.9-4.3-6.7-7.5-11-10.3c-0.5-0.4-1.1-0.7-1.5-1.4
		c0.5,0.2,1.1,0.4,1.6,0.6c5.1,2.8,9.7,6.3,13.1,11.2c3.8,5.5,5,11.5,2.6,17.8c-3.2,8.2-4.3,16.8-3.9,25.4c0.2,4.7,1.8,9.4,3.2,13.9
		c1.1,3.6,3,7,4.7,10.8c-13.3-13.2-14.3-28.5-8.8-45C241,346.1,241.7,344.3,242.5,342.6z"/>
	<path class="st36" d="M253.3,426.7c-7,4.5-15.1,6.1-23,8c-3.3,0.8-6.7,1.5-10.2,1.9c1.6-1,3.2-2,5-3.1c-0.7-0.1-1.2-0.2-2-0.4
		c4.2-1.5,8.4-2.7,12.2-4.4c3.8-1.7,7.6-3.8,11.1-6.2c4.9-3.3,7.2-8.1,7.4-14c0.1-3.1,0-6.2,0-9.4c3.8,6.7,5.8,13.4,1.1,20.5
		c0.2,0.1,0.3,0.2,0.5,0.3c1.1-1.4,2.3-2.8,3.1-4.3c3.5-6.3,3.1-12.9,1.5-19.6c-0.9-3.5-1.9-6.8-2.9-10.3
		C268.8,400.1,269.6,416.3,253.3,426.7z"/>
	<path class="st36" d="M445.3,137.2v225.5l-127,73.3c-9.6,0.5-21.6,0.7-24.8-1.9c-1.5-1.2-3.7-1.7-5.7-2.1c-3.3-0.7-6.7-1-9.3-3.4
		c-1.4-1.2-2.7-2.6-4.2-3.6c-3.3-2.1-4.1-4.8-3.4-8.6c0.4-2.1,0.4-4.8-0.7-6.4c-2.3-3.7-2-7.1-0.9-10.9c1.2-4.2,0.9-8.1-2.7-11.3
		c-1.7-1.5-2.3-3.5-2.3-5.8c0.1-2.5-0.2-5.1,0.1-7.5c0.2-1.8,0.8-3.8,1.9-5.1c1.3-1.6,3.2-2.8,5.1-3.7c3.7-1.7,7.6-3.2,11.4-4.7
		c2.7-1,4.8-2.4,6.5-4.8c2.7-3.8,6.8-5.6,11.2-6.5c1.1-0.2,2.5,0.1,3.5,0.6c6.8,4.1,13.9,4.7,21.3,2.3c2.7-1.5,5.4-3.2,8.2-4.6
		c2.5-1.2,4.8-0.5,6.7,1.4c2.5,2.5,5.6,3.4,8.9,3.8c2,0.2,3.9,0.4,5.8,0.6c0.1,6.2,2.3,9.7,6.8,11.2c1.2-5.1-2.1-8.1-5.4-11.2
		c1.8,0.1,3.5,0.3,5.1,0.8c1.5,0.4,3,1.2,4.7,1.9c-3.5-4.7-6.3-5.9-11.7-5.5c-1.9,0.1-3.8-0.3-5.6-0.5c0,0,0,0,0,0.1
		c-2.1-1.2-4.2-2.3-6.3-3.6c-1.9-1.1-3.7-2.3-5.7-3.7c0.7-3.4,3.7-4.6,7.1-2.2c3.3,2.3,6.7,3.2,10.5,2.3c5.9-1.3,11.9-2.8,17.9-0.2
		c-3.9-4.2-8.9-5.3-13.9-3.4c-4.6,1.8-9,1.9-13.2-1.4c-1-0.8-2.5-1.2-3.8-1.3c-5.6-0.6-9.4,2.3-12.3,6.7c-2,3-4.2,3.8-7.6,3.1
		c4.6-2,6.5-4.8,6.8-9.9c-5.8,0.9-6.9,5.7-8.4,10.5c-3.8-0.7-7.5-1.4-11.1-2.2c-0.5-0.1-1.3-1.6-1.1-1.9c1.2-1.5,2.3-3.1,3.9-4.2
		c2.5-1.8,5.7-2.7,7.7-4.8c3.6-3.7,6.6-7.8,12.6-7.5c-5.3-1.4-9.6,0-13,4.2c-0.7,0.9-1.4,1.9-2.2,2.7c-0.6,0.6-1.4,1.1-2.1,1.6
		c2.2-3.7,1.3-6.9-0.1-10.4c-4.1,3.3-2.1,7-0.9,11.1c-5.1-0.6-9.1,1.2-12.9,4.7c0.5-4.8-2.2-7.1-5.3-9.3c-1.6,4.9,1.8,7.2,4.9,9.7
		c-1,0.9-1.7,1.8-2.7,2.5c-3.8,2.9-7.7,5.7-11.6,8.5c-0.6,0.5-1.5,0.6-2.2,0.9c0,0,0,0-0.1,0c-1.4,0.3-2.9,0.9-4.2,0.7
		c-3.8-0.5-7.4-0.2-10.9,1.5c-1.5,0.7-3,0.7-4.1-0.8c-1-1.4-0.6-2.7,0.3-4c2-3,3.8-6.1,5.8-9.4c-15.1,9.2-18.1,23.4-16.9,39.5
		c-4.3-9.9-3.1-19.1,2.7-27.7c4.6-6.7,10.9-11.4,17.9-15.3c0.9-0.5,1.8-1.1,2.6-1.8c2.2-2.2,2.8-4.8,2.3-7.8c-0.4-2.6,0.7-4.4,3-5.3
		c2.5-1,5.1-1.8,7.8-2.6c4.3-1.2,8.8-2,12.9-3.6c3.5-1.4,6.8-1.8,10.4-1.1c5.6,1,11.2,2.5,17,1.1c1.6-0.4,3.2-0.4,4.7-0.7
		c6.5-1.2,12.4-0.1,17.4,4.5c2.2,2,4.5,3.9,6.9,5.7c1.3,1,2.8,1.6,4.5,2.6c0.9,3.7,2.6,5.2,6.5,5.6c-0.2-3.6-3-4.7-6.1-6.1
		c2.8-0.6,5-1.1,7.3-1.4c4-0.5,6.4,1.6,6.6,5.6c0.1,3.3,1,6.4,2.9,9.3c0.7,1.1,1.3,2.7,1.2,4c-0.2,2.8-0.9,5.6-1.4,8.1
		c4-3.9,4.4-9.5,0.8-14.8c-1.8-2.6-1.9-4.7-0.2-7.3c9.3,2.3,13.6-0.2,20.5-7.6c-2.9,1.4-5.3,2.7-7.7,3.6c-2.5,1-5.2,1.9-7.8,2.2
		c-1.1,0.2-2.9-0.6-3.5-1.5c-3.1-5-7.6-6.5-12.8-4.8c-5.8,1.9-8.5-2.2-12.1-4.8c3.1-2.1,5.9-4,8.7-6c1.5-1.1,2.1-2.6,2-4.6
		c-0.1-1.8,0.3-3.7,0.9-5.4c0.5-1.6,1.7-3.1,2.7-4.9c-3.9,2.1-6,5-5.9,9.3c0.1,3.6-0.3,4.1-3.8,5.5c0,0,0,0,0,0
		c-1.3,0.6-2.7,1-3.9,1.7c-2.8,1.4-5.2,1.1-7.9-0.6c-5.1-3.3-10.7-4.1-16.7-3.3c-2.2,0.3-4.6,0.1-6.8,0c-4-0.4-8-0.9-12-1.3
		c-0.5,0-1-0.1-1.7-0.2c0.5-0.5,0.7-0.8,0.9-1.1c3.9-4,8-7.9,11-12.8c0.7-1.2,2.6-1.9,4.1-2.5c1.9-0.7,3.9-0.8,5.7-1.6
		c4-1.6,7.5-0.3,11.2,1c-4.7,5.8-4.9,8.4-1.2,14.7c5.3-4.1,3.9-9.1,1.6-14.7c2.8,1.4,5,2.6,7.3,3.5c1.6,0.6,3.5,1.2,5,0.8
		c3.5-0.7,6.5-2.4,8.9-5.2c1.4-1.6,3.3-2.6,4.9-3.9c0.3-0.2,0.7-0.2,1.1-0.4c0.3-0.1,0.6-0.4,1.4-0.9c-3.9,0.5-7.1,1.2-9.6,3.8
		c-1.6,1.7-3.6,3.6-6.2,3c-3.9-1-7.9-2.4-11.7-3.8c-1.8-0.6-1.6-1.9-0.2-2.9c1.3-1,2.7-2,4.2-2.8c2.8-1.6,4.4-3.9,4-7.3
		c-0.3-2.3,0.8-3.9,2.8-4.6c2.2-0.7,4.4-1.3,6.6-1.8c3-0.6,5.2-2.4,6.9-4.9c-2.7,2.3-6,2.7-9.4,3.1c-1.9,0.2-3.8,0.4-5.7,0.7
		c-2.7,0.4-4.4,2-5,4.7c-0.4,1.8-0.9,3.6-1.4,5.3c-0.6,2.3-2.1,3.7-4.4,4.6c-1.6,0.6-3.3,1.5-4.4,2.7c-2.4,2.6-5.2,3.4-8.6,3.1
		c-4.9-0.5-9,1.4-11.9,5.3c-0.5,0.7-0.8,1.6-1.2,2.5c-1.2-1.2-1.5-1.5-1.5-1.8c-1.8-7.9-2.3-15.6,3.8-22.2c2-2.1,3.9-4.2,6.1-6.2
		c1.2-1.1,2.6-2.2,4.1-2.6c4.8-1.2,9.7-2,14.6-3c0.6-0.1,1.2-0.2,1.7-0.4c0-0.3-0.1-0.6-0.1-0.9c-5.7,0.4-11.4,0.9-16.4,1.2
		c0.5-4.3,1.1-9,1.7-13.7c-0.3,0-0.6-0.1-0.9-0.1c-0.1,1-0.3,1.9-0.4,2.8c-0.7,4.6-1.2,9.2-4.4,13c-4.4,5.2-8.8,10.5-12.9,15.5
		c0.1-3.5-2.4-5.8-5.5-7.8c-1.1,4.1-0.5,5.2,4.6,9.4c0,3.4-0.1,6.3,0,9.3c0.2,2.7,0.7,5.3,1.1,7.9c0.3,2.3-0.2,4.2-1.7,5.9
		c-5,5.7-14.4,8.3-21.8,6c5.1-4.1,5.2-5.6,1.2-10.9c-1.6-2.2-1.4-4.5-1.1-7c0.4-2.6,0.9-5.3,0.8-7.9c-0.3-6.6,0.3-7.9,6.3-10.9
		c2.1-1.1,4.3-2,6.3-3.2c3.3-2.1,6.6-4.3,9.9-6.6c0.5-0.4,0.7-1.1,1.1-1.6c-2.1,1-4.3,2.1-6.5,3.2c-0.5-3.7-1.3-4.8-4-6.3
		c-0.5,2.5-0.5,2.5,3.1,6.7c-1.4,0.6-2.8,1.3-4.2,1.9c-3.6,1.6-4.1,1.3-4.7-2.7c0-0.4-0.1-0.8-0.1-1.1v-9.1c-0.5,3-0.9,5.6-1.3,8.3
		c-2.7-3.5-5.1-4.7-8.7-4.4c0.7,3.7,3.4,4.9,6.7,5.5c0.8,0.1,1.9,0.7,2.1,1.3c0.9,3.2,0.1,4.6-2.8,6.1c-5.3,2.6-6.6,5-6.2,10.9
		c0.1,2.2,0.3,4.7-0.5,6.8c-1.7,4.3-1.5,8.3,0,12.5c1.4,4.1-0.4,7.4-4.6,8.4c-4.1,1-6.8,3.5-8.6,7.2c-0.7,1.4-1.7,2.8-2.9,3.7
		c-2.8,2-4.3,4.6-5.2,7.8c-0.6,2.1-1.3,4.5-2.8,5.9c-3.3,3.2-6.9,6-9.6,10c-1.4,2-3.4,1.7-4.6-0.4c-2.6-4.7-4.8-9.5-4.4-15.1
		c0.3-3.7,0.4-7.3,0.6-11c0.2-4.9,2.9-8.5,6.7-11.6c1.7,3.8,4.8,4,8.3,3.7c-1.4-3.8-4.8-3.5-7.9-4c3.2-3.5,8.3-4.8,9.4-9.8
		c6.4,2,10,0.9,14.3-4.2c-5.6-2.8-9.9,0.2-14,3.5c0-2.9-0.1-5.6,0-8.2c0.3-4.9,2-9.2,5.7-12.6c3-2.6,5.8-5.5,8.9-7.8
		c5.5-4.1,8.9-9.3,10.6-15.8c0.4-1.6,1-3.1,1.6-4.9c4.9,2.9,8.4,0.5,11.8-2.8c-2-0.5-4-1-5.8-0.6c-2,0.4-3.8,1.7-5.7,2.6
		c1.1-6.2,3.3-10.7,6.7-13.6h0v0c2.6-2.5,5.6-4.1,8.7-5.4c3.2-1.3,6.5-2.3,9.7-3.3c-5.6,0.4-11.1,0.7-15.9,3.8
		c-2,1.3-3.9,2.6-5.9,3.9c-1.9,1.2-3.8,1.4-5.9,0.9c-3.3-0.8-5.7-2.6-7.1-5.6c-0.9-1.9-1.8-3.7-2.7-5.6c0.1,5.4,1.4,10.2,6.7,12.8
		c3.4,1.7,4.4,4.8,3.8,8.3c-0.5,3.1-1.2,6.3-2.4,9.3c-3.7,9.3-11.1,15.1-19.6,19.7c-3.2,1.7-5.7,0.9-7.3-2.4
		c-1.6-3.1-1.4-6.3-1.2-9.6c0.1-1.7,0.9-3.5-0.6-5.1c-1.2-1.3-2.2-2.8-3.6-4.7c-1.2,4.3,1.5,5.8,3.2,7.2c-0.4,4.6-0.6,8.7-1,12.7
		c-2.5-2.8-5.9-2.4-9.6-1.5c2.8,4.4,6.6,3.1,10.2,2.3c1,1.6,1.9,3.1,2.7,4.6c0.4,0.9,0.7,1.9,0.6,2.8c-0.4,3.8-1,7.5-1.4,11.3
		c-0.5,5.7-2.7,8.3-8.3,9.6c-5.1,1.2-7.6,3.8-8.3,9c-0.3,2.3-0.4,4.6-0.6,7.4c-0.7-1.1-1.2-1.9-1.7-2.7c-2.2-3-4.2-6-6.6-8.8
		c-1.9-2-2.9-4.1-2.9-6.9c-0.1-5.3-1.8-10-5.8-13.7c-2.2-2.1-3.6-4.5-4.2-7.6c-0.9-4.8-1.1-4.8,4.1-5.1c6-0.3,9.7-3.2,11-9.1
		c0.6-2.6,0.6-5.3,0.7-7.9c0.2-3.6,1.4-5.7,4.8-6.7c2.2-0.6,4.7-0.9,6.9-0.6c3.7,0.4,7,0,10.2-2.1c2.2-1.5,4.8-2.5,7.2-3.8
		c0.5-0.2,1-0.4,1.8-0.7c-6.2-0.8-6.6-0.6-10.9,3.1c-0.9,0.7-2.3,1.2-3.5,1.2c-2.8-0.1-5.7-0.4-8.6-0.7c-0.9-0.1-2.1-0.4-2.7-0.9
		c-3.4-3.2-4.5-10.3-2.3-14.4c1.7-3.1,0.8-5.8-0.8-8.4c0.4,2.6,0.9,5.3-1.4,7.3c-2.4,2.2-2.8,4.4-1.6,7.5c1.4,3.3,1.8,6.9-0.3,10.3
		c-1.7,2.7-4.2,3.1-6.1,0.5c-1.2-1.6-1.8-3.7-2.3-5.6c-1.2-4.4-3.7-6.4-8.5-6.5c0.9,0.4,1.5,0.7,2,1c3.1,1.5,5,3.8,4.8,7.4
		c-0.1,3.7,1.5,6.1,4.8,7.6c1.9,0.9,2.8,2.5,2.8,4.6c0,1.5,0,3,0,4.6c-0.2,3.5-2,6-5.4,6.5c-4.2,0.7-8.6,1-12.9,0.9
		c-2.1-0.1-4.1-1.6-6.1-2.6v0c0,0,0,0-0.1-0.1c-1.2-1.3-2.7-2.5-3.4-3.9c-1-2.1-1.6-4.4-2-6.8c-0.7-5-3.2-8.6-7.7-10.9
		c-0.9-0.4-1.7-1-2.6-1.4c-7.1-3.3-10.4-9.1-10.9-16.6c-0.1-0.8-0.2-1.6-0.3-2.4c-1.5,7.3-1.2,9.4,1.4,14.6c0,0,0,0,0,0
		c1.4,0.9,3,1.6,4.1,2.7c0.9,1,1.7,2.4,1.7,3.7c0,3.5-3.9,5.8-7.2,4.1c-2-1.1-3.7-2.8-5.9-4.5c1,1.7,1.9,3.1,2.7,4.5
		c2.3,3.4,7.6,4.6,11.3,0.4c2.6-2.9,7.3-2.3,8.7,1.2c1.1,2.7,1.8,5.7,2,8.6c0.2,4.1,1.9,7.1,5.2,9.3c6.7,4.5,6.5,2.8,6.8,12.2
		c0.1,2.2,0.7,4.4,2.6,5.6c2.9,1.8,3.8,4.4,3.8,7.5c0.1,4.3,1.7,7.9,4.1,11.4c3.1,4.7,5.8,9.7,8.8,14.6c-4.9-3.2-9.5-6.5-14-10
		c-1.1-0.9-2-2.5-2.5-3.9c-2.6-7.9-6.1-10.9-13.4-11.2c-2.2-0.1-4.4-0.2-6.6-0.5c-1.6-0.2-3.4-0.9-2.6-3.1c1.6-4.3-0.1-7.6-3.5-10
		c-3.5-2.5-3.7-5.7-3.2-9.3c0.5-3.5-0.7-5.9-4-7.6c-0.6,2.2,0,4,1.8,5.2c1.7,1.1,1.8,2.3,1.2,4c-1.1,3.3-0.7,6.2,2.2,8.6
		c2.1,1.7,3.1,4.1,2.8,6.9c-0.3,2.6-1.6,3.9-4.2,3.9c-2.1,0-4.1-0.3-6.2-0.6c-3.1-0.5-4.9-2.5-5.7-5.5c-0.3-1.1-0.6-2.2-0.7-3.4
		c-0.4-2.8-1.6-4.9-3.9-6.7c-3.1-2.5-3.1-6.6-0.2-9.4c0.7-0.7,1.6-1.4,2.1-2.3c1.9-3.4,4.3-5.9,9.3-4.7c-3.7-2.5-6.8-2-9.8,0.9
		c-4.4,4.2-4.7,4.1-7-1.6c-2.1-5.2-6-7.3-11.5-6c-0.7,0.2-1.5,0.4-2.2,0.5c-2.9,0.5-3.9-0.1-4.6-3c-0.4-1.2-0.6-2.5-0.7-3.8
		c-0.4-4.5-3.5-6.5-7.6-8.5c6,6.4,5.1,6.2,5.3,12.9c0,0.2,0,0.5,0,0.7c0.3,3,1.2,4.2,4.2,4.4c1.9,0.2,3.9,0,5.9-0.4
		c4.3-0.9,7.7,0.6,9.5,4.7c0.7,1.8,1.2,3.8,1.2,5.7c-0.1,4.7,1.4,8.7,4.1,12.3c0.6,0.7,1,1.6,1.8,3c-1.5-0.3-2.3-0.3-3.2-0.6
		c-2.1-0.8-4.3-1.6-6.3-2.7c-3.3-1.7-6.8-2.1-10.4-1.2c-1,0.2-1.9,0.5-2.9,0.6c-2.5,0.5-4.5-0.2-6-2.3c-0.9-1.3-2.2-2.3-3.1-3.6
		s-1.6-2.8-1.9-4.4c-0.4-2.2-0.5-4.6-0.7-7.1c4.2-2.6,5.9-6.1,5.1-11c-1.4,0.9-3.1,1.5-3.7,2.7c-1.2,2.3-1.9,5-2.7,7.4
		c-1.9-1-4-2.2-6.3-3.5c4.3-6.6,1.2-12.2-2.5-18c-5.3,6.7-1.6,12.3,2.1,18c-5.3-0.3-7.4-4.2-10-7.8c0.2,6.6,3.8,10.6,9.8,11.5
		c4.2,0.6,4.9,1.3,4.3,5.7c-0.4,2.9,0,5.3,2.4,7.4c2.1,1.9,2.2,3.9,0.4,6.1c-1.3,1.6-2.7,3.1-4.3,4.3c-2.1,1.6-4.6,1.9-6.9,0.5
		c-3.8-2.4-7.3-1.9-10.9,0.4c-3.7,2.4-7.8,3.6-12.1,1.4c2,2,4.3,3,7,2.6c2.1-0.4,4.4-0.8,6.3-1.8c3.8-1.9,7.2-1.9,10.6,0.9
		c2.1,1.7,4.6,1.7,6.8,0.2c1.9-1.3,3.7-3,5.3-4.6c1.6-1.6,3.4-2.6,5.7-2.5c4.5,0.2,9,0.3,13.4,1.1c2.6,0.4,4.9,2,7.3,3.1h0
		c0,0,0,0,0,0c3.5,1.7,6.3,4.2,8.3,7.4c2,2.5,3.7,5.3,6.9,6.5c0,0,0,0,0,0c1.9,0.3,3.7,0.7,5.6,1c6.2,0.9,12.2,3.1,18.7,2.6
		c1.1-0.1,2.6,1.1,3.5,2.1c1,1,1.6,2.5,2.1,3.8c1.8,5.2,5.1,9.1,9.2,12.5c1.2,1,2.3,2,3.5,3.1h0l0,0c4.7,2.6,8.6,6,9.7,11.6
		c1.5,7.6,2.6,15.3,3.9,22.9c0.3,1.7-0.5,2.7-1.9,2.8c-0.8,0.1-1.9-0.8-2.6-1.5c-0.4-0.4-0.5-1.1-0.6-1.7c-0.6-4-3.1-6.4-6.7-8.1
		c-2.9-1.4-5.7-3.1-8.5-4.7c0-0.2-0.1-0.5-0.1-0.7c5.6,0.3,7.4-3.6,9.5-7.8c-2.6,0-4.7,0.4-6.3,2c-1.5,1.6-2.7,3.4-4.1,5.2
		c-1.9-1.4-2-3.6-2.2-5.6c-0.4-3.4-2.2-5.7-5.3-6.8c-2.3-0.8-4.8-1.6-7.3-1.9c-5.3-0.4-9-2.6-10.9-7.8c-1.5-4.3-4.7-7.4-8.9-9.4
		c-2.5-1.2-4.8-2.9-7.2-4.4c-1.5-0.9-2.1-2.1-2.2-3.9c-0.6-7.5-5-11.4-12.5-11.8c-2.3-0.1-4.5-1.2-6.7-1.9c-0.9-0.3-1.6-0.8-2.5-1.2
		c2.7,3.4,5.5,4.9,10.1,5.8c6.5,1.2,9.1,6.9,5.8,12.7c-3.1,5.4-8,6.3-12.8,2.6c-1.6-1.2-3.6-2.3-5.4-2.5c-2.7-0.2-4.5-1.5-6.2-3.4
		c-2.1-2.4-4.2-4.9-6.5-7.1c-1.2-1.1-2.9-2.2-4.4-2.2c-4.3,0-8.4-0.4-12.2-2.7c1.6,2.7,3.6,4.7,6.9,5.1c2,0.2,3.9,0.3,5.9,0.9
		c1.3,0.4,2.8,1,3.6,2.1c1.4,2,2.2,4.3,3.4,6.8c-2.3,0.8-4.4,1.5-6.8,2.3c0.5-5.7-2.8-8.4-6.8-10.9c-1.4,5.5,2.2,8.1,6.2,10.7
		c-3.9,1-6.1-0.6-8-3.2c-3.7-4.9-4.9-5.2-10.7-3.2c-4.3,1.5-8.5,3.7-13.2,2c3,1.9,6.1,2.7,9.6,1.6c1.3-0.4,2.6-0.7,4-0.9
		c4.7-0.7,5.8,0,7.4,4.6h0c1.7,2.1,4.1,3,6.7,3.1c1.4,0.1,2.7,0.3,4.1,0.6c2.2,0.5,2.6,1.5,1,3.1c-2.6,2.7-5.4,5.3-8.3,7.8
		c-0.9,0.7-2.3,1-3.4,1c-1.6-0.1-3.3-0.5-4.9-1c-3.2-1-6.1,0-9,1.2c1.7,0.1,3.5-0.1,5.2,0.2c1.7,0.4,3.3,1.4,5.1,1.9
		c5.8,1.4,9.4,0.7,12.6-3.3c0.8-1,1.9-1.7,2.9-2.5c0,0,0,0,0,0h0c0,0,0,0,0-0.1c3-2.6,5.2-5.6,6.2-9.5c0.5-1.9,2.2-2.5,4-2.4
		c3.1,0.3,5.9,1.1,7.8,4c2.8,4.1,7.6,4.2,11.2,0.9c1.9-1.6,4.1-2.9,6.3-4c2.5-1.2,4.6-0.6,6.6,1.5c2.8,2.8,5.9,5.5,8.8,8.3
		c1.4,1.5,2.9,3,3.8,4.8c2.1,3.9,4.2,7.4,9.3,7.9c1.8,0.2,1.9,1.6,0.8,2.8c-1.2,1.4-2.5,2.7-3.8,3.9c-4.2,4.1-5,4.1-9.8,0.8
		c-3.1-2.1-5-1.6-7,1.5c-1.4,2.1-2.6,4.3-4.1,6.3c-0.7,0.9-2,2-3.1,2.1c-3.7,0.2-7.4,0.1-11.1-0.1c-1.7-0.1-3-1.4-3.6-3.1
		c-0.5-1.6-1.1-3.2-1.8-4.7c-1.2-2.6-2.6-3-5.4-2.6c-2.2,0.4-4.5,0.5-6.8,0.6c-1.7,0-3.5-0.2-5.3-0.3c3.6,2.1,7.2,3.4,11.2,2.3
		c2.1-0.5,3.2,0.5,3.7,2.4c0.2,0.9,0.5,1.8,0.5,2.7c0.2,2.4,1.5,3.7,3.8,4.1c2.5,0.5,5,1,7.5,1.6c0,0.2,0.1,0.4,0.1,0.6
		c-2.2,1.4-4.3,2.8-6.5,4c-3.6,1.9-7.2,1.8-10.6-0.5c-1.5-1-3.1-2-4.7-2.9c-1.6-0.9-3.5-1.1-5,0.1c-2.6,2-5,4.2-7.5,6.3
		c2.4-0.9,4.6-2.2,6.8-3.3c4.3-2.2,5.4-2,8.6,1.8c2.6,3.1,5.9,3.9,9.6,3.1c1.6-0.4,3.1-1.1,4.7-1.7h0c1.7-1.7,3.3-3.5,5.1-4.9
		c1.3-1,2.9-2.2,4.4-2.1c4.5,0.1,7.5-1.9,9.8-5.5c0.4-0.6,0.9-1.1,1.3-1.6c0.9-1.4,2.1-1.6,3.6-1c1.7,0.7,3.4,1.3,5.2,1.9
		c2.1,0.7,3.9,0.3,5.3-1.5c1.1-1.5,2.3-3.1,3.3-4.6c3-4.3,4.8-4.4,8.4-0.5c0.2,0.2,0.4,0.4,0.6,0.7c2.3,3.8,5.6,6.5,9.5,8.6
		c3,1.6,4.6,4.3,5.2,7.1c-2.3-0.6-4.7-1.2-7.6-1.9c1.7,4.6,5,4.2,8.2,4.3c0.3,1,0.7,1.9,0.9,2.9c0.8,4.3,3,7.5,6.2,10.6
		c6.9,6.5,9.8,15,9.3,24.4c-0.2,2.7-0.9,5.6-2.1,8.1c-1.4,3-1.7,5.9-1.1,9.1c0.8,4.5,0.3,8.8-2.8,12.5c-1.2,1.5-2.2,3.2-3.2,4.8
		c0.7-0.1,1.1-0.6,1.5-0.9c2.9-2.3,5.9-4.5,8.8-6.9c2.5-2.1,4.8-4.3,7.2-6.5c0.5-0.5,0.8-1.1,1.2-1.7c0.1,0.5,0.1,0.7-0.1,1
		c-0.4,0.8-0.9,1.6-1.3,2.4c-3.7,6-8.9,10.4-15.1,13.6c-2.1,1.1-4.2,2-5.5,4.1c-0.5,0.8-1.5,1.2-2.4,1.7c-2.1,1.1-5.8,0.6-7.9,1.5
		c-3.3,1.4-5.2,1.6-8.7,1.2c-3.2-0.4-4.9,1-8.1,1.1c-2.5,0-4.9,0.5-7.4,0.9L54.7,362.7V137.2L250,24.5L445.3,137.2z"/>
	<path class="st36" d="M240.3,403.5c1.4-6.7-1.9-12-4.5-17.6c-3.8-8.1-7.3-16.4-11-24.6c-0.4-1-0.7-2-1-3c0.1-0.1,0.1-0.1,0.2-0.2
		c3.6,6.5,7,13,10.6,19.4c1.9,3.3,3.6,6.7,5.8,9.9C244.2,392.9,242.7,398.2,240.3,403.5z"/>
	<path class="st36" d="M242.5,342.6c2.5-6.2,1.8-12.1-2-17.6c-2.9-4.3-6.7-7.5-11-10.3c-0.5-0.4-1.1-0.7-1.5-1.4
		c0.5,0.2,1.1,0.4,1.6,0.6c5.1,2.8,9.7,6.3,13.1,11.2c3.8,5.5,5,11.5,2.6,17.8c-3.2,8.2-4.3,16.8-3.9,25.4c0.2,4.7,1.8,9.4,3.2,13.9
		c1.1,3.6,3,7,4.7,10.8c-13.3-13.2-14.3-28.5-8.8-45C241,346.1,241.7,344.3,242.5,342.6z"/>
	<path class="st36" d="M253.3,426.7c-7,4.5-15.1,6.1-23,8c-3.3,0.8-6.7,1.5-10.2,1.9c1.6-1,3.2-2,5-3.1c-0.7-0.1-1.2-0.2-2-0.4
		c4.2-1.5,8.4-2.7,12.2-4.4c3.8-1.7,7.6-3.8,11.1-6.2c4.9-3.3,7.2-8.1,7.4-14c0.1-3.1,0-6.2,0-9.4c3.8,6.7,5.8,13.4,1.1,20.5
		c0.2,0.1,0.3,0.2,0.5,0.3c1.1-1.4,2.3-2.8,3.1-4.3c3.5-6.3,3.1-12.9,1.5-19.6c-0.9-3.5-1.9-6.8-2.9-10.3
		C268.8,400.1,269.6,416.3,253.3,426.7z"/>
	<g>
		<path class="st34" d="M250,10.2L42.4,130.1v239.8L250,489.8l207.6-119.9V130.1L250,10.2z M253.3,426.7c-7,4.5-15.1,6.1-23,8
			c-3.3,0.8-6.7,1.5-10.2,1.9c1.6-1,3.2-2,5-3.1c-0.7-0.1-1.2-0.2-2-0.4c4.2-1.5,8.4-2.7,12.2-4.4c3.8-1.7,7.6-3.8,11.1-6.2
			c4.9-3.3,7.2-8.1,7.4-14c0.1-3.1,0-6.2,0-9.4c3.8,6.7,5.8,13.4,1.1,20.5c0.2,0.1,0.3,0.2,0.5,0.3c1.1-1.4,2.3-2.8,3.1-4.3
			c3.5-6.3,3.1-12.9,1.5-19.6c-0.9-3.5-1.9-6.8-2.9-10.3C268.8,400.1,269.6,416.3,253.3,426.7z M235.8,385.9
			c-3.8-8.1-7.3-16.4-11-24.6c-0.4-1-0.7-2-1-3c0.1-0.1,0.1-0.1,0.2-0.2c3.6,6.5,7,13,10.6,19.4c1.9,3.3,3.6,6.7,5.8,9.9
			c3.7,5.5,2.3,10.8-0.1,16.2C241.7,396.9,238.4,391.5,235.8,385.9z M241.4,368.2c0.2,4.7,1.8,9.4,3.2,13.9c1.1,3.6,3,7,4.7,10.8
			c-13.3-13.2-14.3-28.5-8.8-45c0.6-1.8,1.3-3.6,2-5.4c2.5-6.2,1.8-12.1-2-17.6c-2.9-4.3-6.7-7.5-11-10.3c-0.5-0.4-1.1-0.7-1.5-1.4
			c0.5,0.2,1.1,0.4,1.6,0.6c5.1,2.8,9.7,6.3,13.1,11.2c3.8,5.5,5,11.5,2.6,17.8C242.1,351.1,241,359.6,241.4,368.2z M445.3,362.7
			l-127,73.3c-9.6,0.5-21.6,0.7-24.8-1.9c-1.5-1.2-3.7-1.7-5.7-2.1c-3.3-0.7-6.7-1-9.3-3.4c-1.4-1.2-2.7-2.6-4.2-3.6
			c-3.3-2.1-4.1-4.8-3.4-8.6c0.4-2.1,0.4-4.8-0.7-6.4c-2.3-3.7-2-7.1-0.9-10.9c1.2-4.2,0.9-8.1-2.7-11.3c-1.7-1.5-2.3-3.5-2.3-5.8
			c0.1-2.5-0.2-5.1,0.1-7.5c0.2-1.8,0.8-3.8,1.9-5.1c1.3-1.6,3.2-2.8,5.1-3.7c3.7-1.7,7.6-3.2,11.4-4.7c2.7-1,4.8-2.4,6.5-4.8
			c2.7-3.8,6.8-5.6,11.2-6.5c1.1-0.2,2.5,0.1,3.5,0.6c6.8,4.1,13.9,4.7,21.3,2.3c2.7-1.5,5.4-3.2,8.2-4.6c2.5-1.2,4.8-0.5,6.7,1.4
			c2.5,2.5,5.6,3.4,8.9,3.8c2,0.2,3.9,0.4,5.8,0.6c0.1,6.2,2.3,9.7,6.8,11.2c1.2-5.1-2.1-8.1-5.4-11.2c1.8,0.1,3.5,0.3,5.1,0.8
			c1.5,0.4,3,1.2,4.7,1.9c-3.5-4.7-6.3-5.9-11.7-5.5c-1.9,0.1-3.8-0.3-5.6-0.5c0,0,0,0,0,0.1c-2.1-1.2-4.2-2.3-6.3-3.6
			c-1.9-1.1-3.7-2.3-5.7-3.7c0.7-3.4,3.7-4.6,7.1-2.2c3.3,2.3,6.7,3.2,10.5,2.3c5.9-1.3,11.9-2.8,17.9-0.2
			c-3.9-4.2-8.9-5.3-13.9-3.4c-4.6,1.8-9,1.9-13.2-1.4c-1-0.8-2.5-1.2-3.8-1.3c-5.6-0.6-9.4,2.3-12.3,6.7c-2,3-4.2,3.8-7.6,3.1
			c4.6-2,6.5-4.8,6.8-9.9c-5.8,0.9-6.9,5.7-8.4,10.5c-3.8-0.7-7.5-1.4-11.1-2.2c-0.5-0.1-1.3-1.6-1.1-1.9c1.2-1.5,2.3-3.1,3.9-4.2
			c2.5-1.8,5.7-2.7,7.7-4.8c3.6-3.7,6.6-7.8,12.6-7.5c-5.3-1.4-9.6,0-13,4.2c-0.7,0.9-1.4,1.9-2.2,2.7c-0.6,0.6-1.4,1.1-2.1,1.6
			c2.2-3.7,1.3-6.9-0.1-10.4c-4.1,3.3-2.1,7-0.9,11.1c-5.1-0.6-9.1,1.2-12.9,4.7c0.5-4.8-2.2-7.1-5.3-9.3c-1.6,4.9,1.8,7.2,4.9,9.7
			c-1,0.9-1.7,1.8-2.7,2.5c-3.8,2.9-7.7,5.7-11.6,8.5c-0.6,0.5-1.5,0.6-2.2,0.9c0,0,0,0-0.1,0c-1.4,0.3-2.9,0.9-4.2,0.7
			c-3.8-0.5-7.4-0.2-10.9,1.5c-1.5,0.7-3,0.7-4.1-0.8c-1-1.4-0.6-2.7,0.3-4c2-3,3.8-6.1,5.8-9.4c-15.1,9.2-18.1,23.4-16.9,39.5
			c-4.3-9.9-3.1-19.1,2.7-27.7c4.6-6.7,10.9-11.4,17.9-15.3c0.9-0.5,1.8-1.1,2.6-1.8c2.2-2.2,2.8-4.8,2.3-7.8
			c-0.4-2.6,0.7-4.4,3-5.3c2.5-1,5.1-1.8,7.8-2.6c4.3-1.2,8.8-2,12.9-3.6c3.5-1.4,6.8-1.8,10.4-1.1c5.6,1,11.2,2.5,17,1.1
			c1.6-0.4,3.2-0.4,4.7-0.7c6.5-1.2,12.4-0.1,17.4,4.5c2.2,2,4.5,3.9,6.9,5.7c1.3,1,2.8,1.6,4.5,2.6c0.9,3.7,2.6,5.2,6.5,5.6
			c-0.2-3.6-3-4.7-6.1-6.1c2.8-0.6,5-1.1,7.3-1.4c4-0.5,6.4,1.6,6.6,5.6c0.1,3.3,1,6.4,2.9,9.3c0.7,1.1,1.3,2.7,1.2,4
			c-0.2,2.8-0.9,5.6-1.4,8.1c4-3.9,4.4-9.5,0.8-14.8c-1.8-2.6-1.9-4.7-0.2-7.3c9.3,2.3,13.6-0.2,20.5-7.6c-2.9,1.4-5.3,2.7-7.7,3.6
			c-2.5,1-5.2,1.9-7.8,2.2c-1.1,0.2-2.9-0.6-3.5-1.5c-3.1-5-7.6-6.5-12.8-4.8c-5.8,1.9-8.5-2.2-12.1-4.8c3.1-2.1,5.9-4,8.7-6
			c1.5-1.1,2.1-2.6,2-4.6c-0.1-1.8,0.3-3.7,0.9-5.4c0.5-1.6,1.7-3.1,2.7-4.9c-3.9,2.1-6,5-5.9,9.3c0.1,3.6-0.3,4.1-3.8,5.5
			c0,0,0,0,0,0c-1.3,0.6-2.7,1-3.9,1.7c-2.8,1.4-5.2,1.1-7.9-0.6c-5.1-3.3-10.7-4.1-16.7-3.3c-2.2,0.3-4.6,0.1-6.8,0
			c-4-0.4-8-0.9-12-1.3c-0.5,0-1-0.1-1.7-0.2c0.5-0.5,0.7-0.8,0.9-1.1c3.9-4,8-7.9,11-12.8c0.7-1.2,2.6-1.9,4.1-2.5
			c1.9-0.7,3.9-0.8,5.7-1.6c4-1.6,7.5-0.3,11.2,1c-4.7,5.8-4.9,8.4-1.2,14.7c5.3-4.1,3.9-9.1,1.6-14.7c2.8,1.4,5,2.6,7.3,3.5
			c1.6,0.6,3.5,1.2,5,0.8c3.5-0.7,6.5-2.4,8.9-5.2c1.4-1.6,3.3-2.6,4.9-3.9c0.3-0.2,0.7-0.2,1.1-0.4c0.3-0.1,0.6-0.4,1.4-0.9
			c-3.9,0.5-7.1,1.2-9.6,3.8c-1.6,1.7-3.6,3.6-6.2,3c-3.9-1-7.9-2.4-11.7-3.8c-1.8-0.6-1.6-1.9-0.2-2.9c1.3-1,2.7-2,4.2-2.8
			c2.8-1.6,4.4-3.9,4-7.3c-0.3-2.3,0.8-3.9,2.8-4.6c2.2-0.7,4.4-1.3,6.6-1.8c3-0.6,5.2-2.4,6.9-4.9c-2.7,2.3-6,2.7-9.4,3.1
			c-1.9,0.2-3.8,0.4-5.7,0.7c-2.7,0.4-4.4,2-5,4.7c-0.4,1.8-0.9,3.6-1.4,5.3c-0.6,2.3-2.1,3.7-4.4,4.6c-1.6,0.6-3.3,1.5-4.4,2.7
			c-2.4,2.6-5.2,3.4-8.6,3.1c-4.9-0.5-9,1.4-11.9,5.3c-0.5,0.7-0.8,1.6-1.2,2.5c-1.2-1.2-1.5-1.5-1.5-1.8
			c-1.8-7.9-2.3-15.6,3.8-22.2c2-2.1,3.9-4.2,6.1-6.2c1.2-1.1,2.6-2.2,4.1-2.6c4.8-1.2,9.7-2,14.6-3c0.6-0.1,1.2-0.2,1.7-0.4
			c0-0.3-0.1-0.6-0.1-0.9c-5.7,0.4-11.4,0.9-16.4,1.2c0.5-4.3,1.1-9,1.7-13.7c-0.3,0-0.6-0.1-0.9-0.1c-0.1,1-0.3,1.9-0.4,2.8
			c-0.7,4.6-1.2,9.2-4.4,13c-4.4,5.2-8.8,10.5-12.9,15.5c0.1-3.5-2.4-5.8-5.5-7.8c-1.1,4.1-0.5,5.2,4.6,9.4c0,3.4-0.1,6.3,0,9.3
			c0.2,2.7,0.7,5.3,1.1,7.9c0.3,2.3-0.2,4.2-1.7,5.9c-5,5.7-14.4,8.3-21.8,6c5.1-4.1,5.2-5.6,1.2-10.9c-1.6-2.2-1.4-4.5-1.1-7
			c0.4-2.6,0.9-5.3,0.8-7.9c-0.3-6.6,0.3-7.9,6.3-10.9c2.1-1.1,4.3-2,6.3-3.2c3.3-2.1,6.6-4.3,9.9-6.6c0.5-0.4,0.7-1.1,1.1-1.6
			c-2.1,1-4.3,2.1-6.5,3.2c-0.5-3.7-1.3-4.8-4-6.3c-0.5,2.5-0.5,2.5,3.1,6.7c-1.4,0.6-2.8,1.3-4.2,1.9c-3.6,1.6-4.1,1.3-4.7-2.7
			c0-0.4-0.1-0.8-0.1-1.1v-9.1c-0.5,3-0.9,5.6-1.3,8.3c-2.7-3.5-5.1-4.7-8.7-4.4c0.7,3.7,3.4,4.9,6.7,5.5c0.8,0.1,1.9,0.7,2.1,1.3
			c0.9,3.2,0.1,4.6-2.8,6.1c-5.3,2.6-6.6,5-6.2,10.9c0.1,2.2,0.3,4.7-0.5,6.8c-1.7,4.3-1.5,8.3,0,12.5c1.4,4.1-0.4,7.4-4.6,8.4
			c-4.1,1-6.8,3.5-8.6,7.2c-0.7,1.4-1.7,2.8-2.9,3.7c-2.8,2-4.3,4.6-5.2,7.8c-0.6,2.1-1.3,4.5-2.8,5.9c-3.3,3.2-6.9,6-9.6,10
			c-1.4,2-3.4,1.7-4.6-0.4c-2.6-4.7-4.8-9.5-4.4-15.1c0.3-3.7,0.4-7.3,0.6-11c0.2-4.9,2.9-8.5,6.7-11.6c1.7,3.8,4.8,4,8.3,3.7
			c-1.4-3.8-4.8-3.5-7.9-4c3.2-3.5,8.3-4.8,9.4-9.8c6.4,2,10,0.9,14.3-4.2c-5.6-2.8-9.9,0.2-14,3.5c0-2.9-0.1-5.6,0-8.2
			c0.3-4.9,2-9.2,5.7-12.6c3-2.6,5.8-5.5,8.9-7.8c5.5-4.1,8.9-9.3,10.6-15.8c0.4-1.6,1-3.1,1.6-4.9c4.9,2.9,8.4,0.5,11.8-2.8
			c-2-0.5-4-1-5.8-0.6c-2,0.4-3.8,1.7-5.7,2.6c1.1-6.2,3.3-10.7,6.7-13.6h0v0c2.6-2.5,5.6-4.1,8.7-5.4c3.2-1.3,6.5-2.3,9.7-3.3
			c-5.6,0.4-11.1,0.7-15.9,3.8c-2,1.3-3.9,2.6-5.9,3.9c-1.9,1.2-3.8,1.4-5.9,0.9c-3.3-0.8-5.7-2.6-7.1-5.6c-0.9-1.9-1.8-3.7-2.7-5.6
			c0.1,5.4,1.4,10.2,6.7,12.8c3.4,1.7,4.4,4.8,3.8,8.3c-0.5,3.1-1.2,6.3-2.4,9.3c-3.7,9.3-11.1,15.1-19.6,19.7
			c-3.2,1.7-5.7,0.9-7.3-2.4c-1.6-3.1-1.4-6.3-1.2-9.6c0.1-1.7,0.9-3.5-0.6-5.1c-1.2-1.3-2.2-2.8-3.6-4.7c-1.2,4.3,1.5,5.8,3.2,7.2
			c-0.4,4.6-0.6,8.7-1,12.7c-2.5-2.8-5.9-2.4-9.6-1.5c2.8,4.4,6.6,3.1,10.2,2.3c1,1.6,1.9,3.1,2.7,4.6c0.4,0.9,0.7,1.9,0.6,2.8
			c-0.4,3.8-1,7.5-1.4,11.3c-0.5,5.7-2.7,8.3-8.3,9.6c-5.1,1.2-7.6,3.8-8.3,9c-0.3,2.3-0.4,4.6-0.6,7.4c-0.7-1.1-1.2-1.9-1.7-2.7
			c-2.2-3-4.2-6-6.6-8.8c-1.9-2-2.9-4.1-2.9-6.9c-0.1-5.3-1.8-10-5.8-13.7c-2.2-2.1-3.6-4.5-4.2-7.6c-0.9-4.8-1.1-4.8,4.1-5.1
			c6-0.3,9.7-3.2,11-9.1c0.6-2.6,0.6-5.3,0.7-7.9c0.2-3.6,1.4-5.7,4.8-6.7c2.2-0.6,4.7-0.9,6.9-0.6c3.7,0.4,7,0,10.2-2.1
			c2.2-1.5,4.8-2.5,7.2-3.8c0.5-0.2,1-0.4,1.8-0.7c-6.2-0.8-6.6-0.6-10.9,3.1c-0.9,0.7-2.3,1.2-3.5,1.2c-2.8-0.1-5.7-0.4-8.6-0.7
			c-0.9-0.1-2.1-0.4-2.7-0.9c-3.4-3.2-4.5-10.3-2.3-14.4c1.7-3.1,0.8-5.8-0.8-8.4c0.4,2.6,0.9,5.3-1.4,7.3c-2.4,2.2-2.8,4.4-1.6,7.5
			c1.4,3.3,1.8,6.9-0.3,10.3c-1.7,2.7-4.2,3.1-6.1,0.5c-1.2-1.6-1.8-3.7-2.3-5.6c-1.2-4.4-3.7-6.4-8.5-6.5c0.9,0.4,1.5,0.7,2,1
			c3.1,1.5,5,3.8,4.8,7.4c-0.1,3.7,1.5,6.1,4.8,7.6c1.9,0.9,2.8,2.5,2.8,4.6c0,1.5,0,3,0,4.6c-0.2,3.5-2,6-5.4,6.5
			c-4.2,0.7-8.6,1-12.9,0.9c-2.1-0.1-4.1-1.6-6.1-2.6v0c0,0,0,0-0.1-0.1c-1.2-1.3-2.7-2.5-3.4-3.9c-1-2.1-1.6-4.4-2-6.8
			c-0.7-5-3.2-8.6-7.7-10.9c-0.9-0.4-1.7-1-2.6-1.4c-7.1-3.3-10.4-9.1-10.9-16.6c-0.1-0.8-0.2-1.6-0.3-2.4
			c-1.5,7.3-1.2,9.4,1.4,14.6c0,0,0,0,0,0c1.4,0.9,3,1.6,4.1,2.7c0.9,1,1.7,2.4,1.7,3.7c0,3.5-3.9,5.8-7.2,4.1
			c-2-1.1-3.7-2.8-5.9-4.5c1,1.7,1.9,3.1,2.7,4.5c2.3,3.4,7.6,4.6,11.3,0.4c2.6-2.9,7.3-2.3,8.7,1.2c1.1,2.7,1.8,5.7,2,8.6
			c0.2,4.1,1.9,7.1,5.2,9.3c6.7,4.5,6.5,2.8,6.8,12.2c0.1,2.2,0.7,4.4,2.6,5.6c2.9,1.8,3.8,4.4,3.8,7.5c0.1,4.3,1.7,7.9,4.1,11.4
			c3.1,4.7,5.8,9.7,8.8,14.6c-4.9-3.2-9.5-6.5-14-10c-1.1-0.9-2-2.5-2.5-3.9c-2.6-7.9-6.1-10.9-13.4-11.2c-2.2-0.1-4.4-0.2-6.6-0.5
			c-1.6-0.2-3.4-0.9-2.6-3.1c1.6-4.3-0.1-7.6-3.5-10c-3.5-2.5-3.7-5.7-3.2-9.3c0.5-3.5-0.7-5.9-4-7.6c-0.6,2.2,0,4,1.8,5.2
			c1.7,1.1,1.8,2.3,1.2,4c-1.1,3.3-0.7,6.2,2.2,8.6c2.1,1.7,3.1,4.1,2.8,6.9c-0.3,2.6-1.6,3.9-4.2,3.9c-2.1,0-4.1-0.3-6.2-0.6
			c-3.1-0.5-4.9-2.5-5.7-5.5c-0.3-1.1-0.6-2.2-0.7-3.4c-0.4-2.8-1.6-4.9-3.9-6.7c-3.1-2.5-3.1-6.6-0.2-9.4c0.7-0.7,1.6-1.4,2.1-2.3
			c1.9-3.4,4.3-5.9,9.3-4.7c-3.7-2.5-6.8-2-9.8,0.9c-4.4,4.2-4.7,4.1-7-1.6c-2.1-5.2-6-7.3-11.5-6c-0.7,0.2-1.5,0.4-2.2,0.5
			c-2.9,0.5-3.9-0.1-4.6-3c-0.4-1.2-0.6-2.5-0.7-3.8c-0.4-4.5-3.5-6.5-7.6-8.5c6,6.4,5.1,6.2,5.3,12.9c0,0.2,0,0.5,0,0.7
			c0.3,3,1.2,4.2,4.2,4.4c1.9,0.2,3.9,0,5.9-0.4c4.3-0.9,7.7,0.6,9.5,4.7c0.7,1.8,1.2,3.8,1.2,5.7c-0.1,4.7,1.4,8.7,4.1,12.3
			c0.6,0.7,1,1.6,1.8,3c-1.5-0.3-2.3-0.3-3.2-0.6c-2.1-0.8-4.3-1.6-6.3-2.7c-3.3-1.7-6.8-2.1-10.4-1.2c-1,0.2-1.9,0.5-2.9,0.6
			c-2.5,0.5-4.5-0.2-6-2.3c-0.9-1.3-2.2-2.3-3.1-3.6s-1.6-2.8-1.9-4.4c-0.4-2.2-0.5-4.6-0.7-7.1c4.2-2.6,5.9-6.1,5.1-11
			c-1.4,0.9-3.1,1.5-3.7,2.7c-1.2,2.3-1.9,5-2.7,7.4c-1.9-1-4-2.2-6.3-3.5c4.3-6.6,1.2-12.2-2.5-18c-5.3,6.7-1.6,12.3,2.1,18
			c-5.3-0.3-7.4-4.2-10-7.8c0.2,6.6,3.8,10.6,9.8,11.5c4.2,0.6,4.9,1.3,4.3,5.7c-0.4,2.9,0,5.3,2.4,7.4c2.1,1.9,2.2,3.9,0.4,6.1
			c-1.3,1.6-2.7,3.1-4.3,4.3c-2.1,1.6-4.6,1.9-6.9,0.5c-3.8-2.4-7.3-1.9-10.9,0.4c-3.7,2.4-7.8,3.6-12.1,1.4c2,2,4.3,3,7,2.6
			c2.1-0.4,4.4-0.8,6.3-1.8c3.8-1.9,7.2-1.9,10.6,0.9c2.1,1.7,4.6,1.7,6.8,0.2c1.9-1.3,3.7-3,5.3-4.6c1.6-1.6,3.4-2.6,5.7-2.5
			c4.5,0.2,9,0.3,13.4,1.1c2.6,0.4,4.9,2,7.3,3.1h0c0,0,0,0,0,0c3.5,1.7,6.3,4.2,8.3,7.4c2,2.5,3.7,5.3,6.9,6.5c0,0,0,0,0,0
			c1.9,0.3,3.7,0.7,5.6,1c6.2,0.9,12.2,3.1,18.7,2.6c1.1-0.1,2.6,1.1,3.5,2.1c1,1,1.6,2.5,2.1,3.8c1.8,5.2,5.1,9.1,9.2,12.5
			c1.2,1,2.3,2,3.5,3.1h0l0,0c4.7,2.6,8.6,6,9.7,11.6c1.5,7.6,2.6,15.3,3.9,22.9c0.3,1.7-0.5,2.7-1.9,2.8c-0.8,0.1-1.9-0.8-2.6-1.5
			c-0.4-0.4-0.5-1.1-0.6-1.7c-0.6-4-3.1-6.4-6.7-8.1c-2.9-1.4-5.7-3.1-8.5-4.7c0-0.2-0.1-0.5-0.1-0.7c5.6,0.3,7.4-3.6,9.5-7.8
			c-2.6,0-4.7,0.4-6.3,2c-1.5,1.6-2.7,3.4-4.1,5.2c-1.9-1.4-2-3.6-2.2-5.6c-0.4-3.4-2.2-5.7-5.3-6.8c-2.3-0.8-4.8-1.6-7.3-1.9
			c-5.3-0.4-9-2.6-10.9-7.8c-1.5-4.3-4.7-7.4-8.9-9.4c-2.5-1.2-4.8-2.9-7.2-4.4c-1.5-0.9-2.1-2.1-2.2-3.9c-0.6-7.5-5-11.4-12.5-11.8
			c-2.3-0.1-4.5-1.2-6.7-1.9c-0.9-0.3-1.6-0.8-2.5-1.2c2.7,3.4,5.5,4.9,10.1,5.8c6.5,1.2,9.1,6.9,5.8,12.7c-3.1,5.4-8,6.3-12.8,2.6
			c-1.6-1.2-3.6-2.3-5.4-2.5c-2.7-0.2-4.5-1.5-6.2-3.4c-2.1-2.4-4.2-4.9-6.5-7.1c-1.2-1.1-2.9-2.2-4.4-2.2c-4.3,0-8.4-0.4-12.2-2.7
			c1.6,2.7,3.6,4.7,6.9,5.1c2,0.2,3.9,0.3,5.9,0.9c1.3,0.4,2.8,1,3.6,2.1c1.4,2,2.2,4.3,3.4,6.8c-2.3,0.8-4.4,1.5-6.8,2.3
			c0.5-5.7-2.8-8.4-6.8-10.9c-1.4,5.5,2.2,8.1,6.2,10.7c-3.9,1-6.1-0.6-8-3.2c-3.7-4.9-4.9-5.2-10.7-3.2c-4.3,1.5-8.5,3.7-13.2,2
			c3,1.9,6.1,2.7,9.6,1.6c1.3-0.4,2.6-0.7,4-0.9c4.7-0.7,5.8,0,7.4,4.6h0c1.7,2.1,4.1,3,6.7,3.1c1.4,0.1,2.7,0.3,4.1,0.6
			c2.2,0.5,2.6,1.5,1,3.1c-2.6,2.7-5.4,5.3-8.3,7.8c-0.9,0.7-2.3,1-3.4,1c-1.6-0.1-3.3-0.5-4.9-1c-3.2-1-6.1,0-9,1.2
			c1.7,0.1,3.5-0.1,5.2,0.2c1.7,0.4,3.3,1.4,5.1,1.9c5.8,1.4,9.4,0.7,12.6-3.3c0.8-1,1.9-1.7,2.9-2.5c0,0,0,0,0,0h0c0,0,0,0,0-0.1
			c3-2.6,5.2-5.6,6.2-9.5c0.5-1.9,2.2-2.5,4-2.4c3.1,0.3,5.9,1.1,7.8,4c2.8,4.1,7.6,4.2,11.2,0.9c1.9-1.6,4.1-2.9,6.3-4
			c2.5-1.2,4.6-0.6,6.6,1.5c2.8,2.8,5.9,5.5,8.8,8.3c1.4,1.5,2.9,3,3.8,4.8c2.1,3.9,4.2,7.4,9.3,7.9c1.8,0.2,1.9,1.6,0.8,2.8
			c-1.2,1.4-2.5,2.7-3.8,3.9c-4.2,4.1-5,4.1-9.8,0.8c-3.1-2.1-5-1.6-7,1.5c-1.4,2.1-2.6,4.3-4.1,6.3c-0.7,0.9-2,2-3.1,2.1
			c-3.7,0.2-7.4,0.1-11.1-0.1c-1.7-0.1-3-1.4-3.6-3.1c-0.5-1.6-1.1-3.2-1.8-4.7c-1.2-2.6-2.6-3-5.4-2.6c-2.2,0.4-4.5,0.5-6.8,0.6
			c-1.7,0-3.5-0.2-5.3-0.3c3.6,2.1,7.2,3.4,11.2,2.3c2.1-0.5,3.2,0.5,3.7,2.4c0.2,0.9,0.5,1.8,0.5,2.7c0.2,2.4,1.5,3.7,3.8,4.1
			c2.5,0.5,5,1,7.5,1.6c0,0.2,0.1,0.4,0.1,0.6c-2.2,1.4-4.3,2.8-6.5,4c-3.6,1.9-7.2,1.8-10.6-0.5c-1.5-1-3.1-2-4.7-2.9
			c-1.6-0.9-3.5-1.1-5,0.1c-2.6,2-5,4.2-7.5,6.3c2.4-0.9,4.6-2.2,6.8-3.3c4.3-2.2,5.4-2,8.6,1.8c2.6,3.1,5.9,3.9,9.6,3.1
			c1.6-0.4,3.1-1.1,4.7-1.7h0c1.7-1.7,3.3-3.5,5.1-4.9c1.3-1,2.9-2.2,4.4-2.1c4.5,0.1,7.5-1.9,9.8-5.5c0.4-0.6,0.9-1.1,1.3-1.6
			c0.9-1.4,2.1-1.6,3.6-1c1.7,0.7,3.4,1.3,5.2,1.9c2.1,0.7,3.9,0.3,5.3-1.5c1.1-1.5,2.3-3.1,3.3-4.6c3-4.3,4.8-4.4,8.4-0.5
			c0.2,0.2,0.4,0.4,0.6,0.7c2.3,3.8,5.6,6.5,9.5,8.6c3,1.6,4.6,4.3,5.2,7.1c-2.3-0.6-4.7-1.2-7.6-1.9c1.7,4.6,5,4.2,8.2,4.3
			c0.3,1,0.7,1.9,0.9,2.9c0.8,4.3,3,7.5,6.2,10.6c6.9,6.5,9.8,15,9.3,24.4c-0.2,2.7-0.9,5.6-2.1,8.1c-1.4,3-1.7,5.9-1.1,9.1
			c0.8,4.5,0.3,8.8-2.8,12.5c-1.2,1.5-2.2,3.2-3.2,4.8c0.7-0.1,1.1-0.6,1.5-0.9c2.9-2.3,5.9-4.5,8.8-6.9c2.5-2.1,4.8-4.3,7.2-6.5
			c0.5-0.5,0.8-1.1,1.2-1.7c0.1,0.5,0.1,0.7-0.1,1c-0.4,0.8-0.9,1.6-1.3,2.4c-3.7,6-8.9,10.4-15.1,13.6c-2.1,1.1-4.2,2-5.5,4.1
			c-0.5,0.8-1.5,1.2-2.4,1.7c-2.1,1.1-5.8,0.6-7.9,1.5c-3.3,1.4-5.2,1.6-8.7,1.2c-3.2-0.4-4.9,1-8.1,1.1c-2.5,0-4.9,0.5-7.4,0.9
			L54.7,362.7V137.2L250,24.5l195.3,112.8V362.7z"/>
		<path class="st34" d="M115.6,304.8L115.6,304.8c-0.2,0-0.5,0.1-0.7,0.1c-0.2,0-0.5,0-0.7,0.1c-0.2,0-0.5,0.1-0.7,0.1h-0.1
			c-0.1,0-0.3,0.1-0.4,0.1c-0.1,0-0.1,0-0.2,0.1c-0.1,0-0.2,0-0.4,0.1c-0.2,0.1-0.4,0.1-0.6,0.2c-0.1,0-0.1,0-0.2,0.1
			c-0.2,0-0.4,0.1-0.6,0.2c-0.2,0.1-0.4,0.1-0.6,0.2c-0.4,0.1-0.7,0.3-1.1,0.5c-0.2,0.1-0.4,0.2-0.5,0.2c-0.1,0.1-0.2,0.1-0.3,0.2
			c-0.1,0-0.2,0.1-0.3,0.1c-0.2,0.1-0.4,0.2-0.5,0.3c-0.2,0.1-0.4,0.2-0.5,0.4c-0.3,0.2-0.6,0.5-0.9,0.8c-0.3,0.2-0.6,0.5-0.9,0.8
			c-0.2,0.1-0.3,0.3-0.4,0.5c-0.3,0.3-0.5,0.6-0.8,1c-0.2,0.3-0.5,0.7-0.7,1s-0.4,0.7-0.6,1.1c-0.2,0.4-0.4,0.7-0.5,1.1
			c0,0.1-0.1,0.2-0.1,0.2s0,0.1-0.1,0.2c-0.1,0.1-0.1,0.2-0.1,0.4c-0.1,0.4-0.3,0.8-0.4,1.2c4.5,0.8,8.3-0.4,10.9-3.9
			c1.7-2.3,3.1-4.9,4.7-7.4C116.5,304.7,116.1,304.8,115.6,304.8z M117.1,304.7C117,304.7,117,304.7,117.1,304.7
			C117.1,304.7,117.1,304.7,117.1,304.7L117.1,304.7z M156.9,362.6c-0.3-0.9-0.6-1.7-0.9-2.6c-0.2-0.5-0.4-1-0.5-1.5
			c-0.4-0.9-0.7-1.9-1-2.8h0l-0.9,0.9c-0.2,0.2-0.4,0.4-0.5,0.6c-0.1,0.1-0.2,0.3-0.3,0.4c-0.1,0.2-0.3,0.4-0.4,0.6
			c-0.1,0.1-0.2,0.2-0.2,0.4c-0.1,0.1-0.2,0.3-0.2,0.4c-0.1,0.1-0.1,0.2-0.1,0.3c0,0-0.1,0.1-0.1,0.2c0,0.1-0.1,0.1-0.1,0.2
			c-0.1,0.1-0.1,0.3-0.2,0.5c0,0,0,0.1,0,0.1c-0.1,0.2-0.1,0.4-0.2,0.5c0,0.2-0.1,0.4-0.1,0.5c0,0.1,0,0.2-0.1,0.3
			c0,0.1,0,0.1,0,0.2c0,0.1-0.1,0.3-0.1,0.4c0,0.1,0,0.2,0,0.4c0,0.2-0.1,0.3-0.1,0.5v0c0,0.1,0,0.1,0,0.2v0.4c0,0.1,0,0.1,0,0.2
			v1.1c0,0.1,0,0.3,0,0.4c0,0.1,0,0.3,0,0.4c0,0.1,0,0.3,0,0.4c0.1,0.4,0.1,0.8,0.2,1.2c0,0.2,0.1,0.4,0.1,0.6c0,0.1,0,0.1,0,0.2
			c0.1,0.3,0.2,0.6,0.3,1c0,0.1,0.1,0.3,0.1,0.4c0,0.2,0.1,0.3,0.1,0.5c0,0,0,0,0,0c0,0.2,0.1,0.4,0.2,0.5c0.1,0.2,0.2,0.5,0.3,0.7
			c0.1,0.2,0.2,0.4,0.2,0.6c0.1,0.2,0.2,0.5,0.3,0.7c0.1,0.2,0.2,0.5,0.4,0.7c0.2,0.5,0.5,0.9,0.8,1.4
			C157.5,371.1,158.4,367.5,156.9,362.6z M162.3,279c-0.8-0.3-1.6-0.5-2.4-0.6c-0.4-0.1-0.7-0.1-1.1-0.1c-0.2,0-0.4,0-0.5,0
			s-0.4,0-0.5,0h-0.3c-0.1,0-0.2,0-0.2,0c-0.1,0-0.2,0-0.3,0c-0.1,0-0.2,0-0.3,0c-0.1,0-0.3,0-0.4,0.1c-0.1,0-0.3,0.1-0.5,0.1
			c-0.2,0.1-0.4,0.1-0.6,0.2c-0.1,0-0.2,0.1-0.4,0.1c-0.1,0-0.2,0.1-0.2,0.1c-0.1,0-0.2,0.1-0.3,0.1c-0.1,0-0.2,0.1-0.2,0.1
			c-0.1,0-0.2,0.1-0.2,0.1c-0.1,0.1-0.2,0.1-0.4,0.2c-0.1,0.1-0.2,0.1-0.4,0.2c-0.1,0-0.1,0.1-0.2,0.1c-0.1,0.1-0.1,0.1-0.2,0.1
			c-0.2,0.1-0.4,0.3-0.5,0.4c-0.1,0.1-0.3,0.2-0.4,0.4c-0.3,0.2-0.6,0.5-0.9,0.8l-0.2,0.2c-0.3,0.4-0.7,0.7-1,1.1
			c2.2,1.2,4.6,1.9,6.7,0.9c0.2-0.1,0.4-0.2,0.6-0.3c0,0,0.1,0,0.1-0.1c0.2-0.1,0.4-0.2,0.6-0.4c0.2-0.1,0.4-0.2,0.6-0.4
			c0.2-0.1,0.4-0.3,0.6-0.4c0.2-0.2,0.4-0.3,0.6-0.5c0.6-0.5,1.2-0.9,1.8-1.4c0.5-0.4,1.1-0.8,1.6-1.2
			C162.7,279.1,162.5,279.1,162.3,279z M169.4,285.5c-0.1-0.1-0.2-0.1-0.2-0.1c-0.4-0.2-0.6-0.3-1-0.4c-0.1,0-0.1,0-0.2-0.1
			c-0.2-0.1-0.4-0.1-0.7-0.2c-0.1,0-0.2,0-0.3,0c-1-0.1-2,0.2-3.3,0.8c2,2.5,4.4,2.8,7.5,1.1C170.5,286.1,169.9,285.7,169.4,285.5z
			 M175.8,293.7c-0.1,0-0.2,0.1-0.3,0.1c-0.1,0-0.3,0.1-0.4,0.2c-0.1,0.1-0.2,0.1-0.4,0.2c-0.1,0.1-0.2,0.1-0.4,0.2
			c-0.1,0.1-0.2,0.1-0.3,0.2c0,0-0.1,0.1-0.1,0.1c-0.1,0.1-0.1,0.1-0.2,0.2c-0.1,0.1-0.2,0.2-0.4,0.3c0,0,0,0,0,0.1
			c-0.1,0.1-0.2,0.2-0.3,0.2c-0.1,0.1-0.2,0.2-0.3,0.4c-0.1,0.1-0.1,0.2-0.2,0.3c0,0.1-0.1,0.1-0.1,0.2c0,0,0,0.1-0.1,0.1
			c0,0,0,0.1-0.1,0.1c-0.1,0.1-0.1,0.2-0.2,0.4c-0.1,0.2-0.2,0.4-0.3,0.5c-0.2,0.4-0.4,0.8-0.5,1.2c0.4,0,0.9,0.1,1.3,0
			c0.1,0,0.1,0,0.2,0c0.1,0,0.2,0,0.3,0c0.1,0,0.3,0,0.4-0.1c0.1,0,0.2,0,0.2-0.1c0.2,0,0.4-0.1,0.6-0.2c0.1,0,0.2-0.1,0.4-0.1
			c0.1-0.1,0.3-0.1,0.5-0.2c0.1,0,0.1-0.1,0.2-0.1c0.1-0.1,0.2-0.1,0.2-0.2c0.1,0,0.2-0.1,0.2-0.1c0.1-0.1,0.1-0.1,0.2-0.2
			c0.1,0,0.1-0.1,0.2-0.1c0.1-0.1,0.2-0.2,0.3-0.3c0.1-0.1,0.2-0.2,0.4-0.4c0.1-0.1,0.2-0.3,0.3-0.4c0.1-0.1,0.1-0.1,0.1-0.2
			c0,0,0.1-0.1,0.1-0.2c0.1-0.1,0.1-0.1,0.1-0.2c0.1-0.1,0.1-0.1,0.1-0.2c0-0.1,0.1-0.1,0.1-0.2c0-0.1,0.1-0.2,0.1-0.3
			c0-0.1,0-0.1,0.1-0.2c0-0.2,0.1-0.4,0.1-0.5c0.1-0.4,0.1-0.7,0-1.1C177.2,293.2,176.5,293.4,175.8,293.7z M178.1,293.1
			L178.1,293.1C178.1,293.1,178.2,293.1,178.1,293.1C178.1,293.1,178.1,293.1,178.1,293.1z M181.8,231.6c-3.7-3.9-11-4.4-16.8-2.1
			c3.8,5.3,12.9,7.3,18.2,4c0.1-0.1,0.2-0.4,0.2-0.6C182.9,232.4,182.3,232.1,181.8,231.6z M216.3,246.6l0-0.1c0-0.2,0-0.4-0.1-0.6
			c0-0.2-0.1-0.4-0.1-0.6c0-0.2-0.1-0.4-0.1-0.6c-0.1-0.2-0.1-0.4-0.2-0.6c-0.1-0.2-0.2-0.5-0.3-0.7c-0.1-0.1-0.1-0.3-0.2-0.4
			c-4.6,2.6-6.2,5.1-6.4,10.1v1.7c0,0,0,0,0,0.1c0,0,0,0,0,0v0.2c0,1.2,0.1,2.4,0.1,3.6c0,0.5,0,1,0,1.5c0.3-0.1,0.5-0.2,0.8-0.4
			c0.1,0,0.1-0.1,0.2-0.1c0,0,0.1-0.1,0.1-0.1c0.1-0.1,0.2-0.2,0.4-0.2c0.2-0.1,0.5-0.3,0.7-0.5c0.3-0.2,0.5-0.4,0.7-0.6
			c0.1-0.1,0.2-0.2,0.3-0.4l0.3-0.3c0.1-0.1,0.2-0.2,0.3-0.4c0.1-0.1,0.2-0.2,0.3-0.4c0.1-0.2,0.3-0.4,0.4-0.5
			c0.1-0.1,0.2-0.3,0.2-0.4c0,0,0.1-0.1,0.1-0.1c0,0,0-0.1,0.1-0.1c0.1-0.2,0.2-0.4,0.4-0.6c0-0.1,0.1-0.2,0.1-0.2
			c0.1-0.2,0.2-0.4,0.2-0.5c0.1-0.2,0.2-0.4,0.2-0.6c0.1-0.1,0.1-0.3,0.2-0.5c0-0.1,0.1-0.3,0.2-0.5c0-0.1,0.1-0.3,0.1-0.4
			c0-0.2,0.1-0.4,0.2-0.6c0-0.1,0.1-0.3,0.1-0.5c0-0.1,0.1-0.2,0.1-0.3c0-0.1,0.1-0.2,0.1-0.4v0c0-0.2,0.1-0.4,0.1-0.5
			c0,0,0-0.1,0-0.1c0-0.1,0-0.2,0-0.3c0-0.2,0-0.4,0.1-0.6c0,0,0,0,0-0.1c0-0.2,0-0.4,0-0.5v-0.2
			C216.4,247.7,216.3,247.2,216.3,246.6z M218.8,317.6c-0.4-0.1-0.8-0.2-1.2-0.2c-0.4-0.1-0.7-0.1-1-0.1h-0.2c-0.3,0-0.6,0-1,0h-0.1
			c-0.2,0-0.3,0-0.5,0c-0.1,0-0.3,0-0.5,0.1c-0.1,0-0.1,0-0.2,0c-0.2,0-0.5,0.1-0.8,0.2c0,0-0.1,0-0.2,0.1c-0.1,0-0.2,0.1-0.3,0.1
			c-0.1,0-0.2,0.1-0.3,0.1c-0.1,0-0.2,0.1-0.3,0.1c-0.1,0-0.2,0.1-0.3,0.1c-0.1,0-0.2,0.1-0.3,0.1c-0.1,0.1-0.2,0.1-0.3,0.2
			c-0.1,0-0.2,0.1-0.3,0.2c-0.1,0.1-0.2,0.1-0.3,0.2h0c-0.1,0.1-0.2,0.2-0.4,0.3c-0.2,0.2-0.5,0.4-0.8,0.7c-0.1,0.1-0.2,0.1-0.2,0.2
			c-0.1,0.1-0.2,0.2-0.3,0.3c-0.3,0.3-0.6,0.6-0.9,1c2.8,1.5,5.5,1.8,8.2-0.1c0.7-0.5,1.4-1,2.1-1.5c0.7-0.5,1.4-1,2.1-1.6
			C220,317.9,219.4,317.7,218.8,317.6z M283.7,353.2C283.7,353.2,283.7,353.2,283.7,353.2L283.7,353.2L283.7,353.2z M287.4,345
			c0-0.1,0-0.2,0-0.4c-0.1-0.3-0.1-0.6-0.2-0.9c0-0.1,0-0.1,0-0.2c0-0.1,0-0.1-0.1-0.2c0-0.1,0-0.2-0.1-0.3c0-0.1-0.1-0.2-0.1-0.3
			c-0.1-0.2-0.1-0.3-0.2-0.5c-3.4,1.9-5.2,7.1-3.7,10.7l0,0c0,0,0,0,0.1,0c0,0,0.1,0,0.1,0c0.1,0,0.2,0,0.3,0.1c0,0,0.1,0,0.1,0h0.1
			c0.2-0.2,0.3-0.3,0.4-0.5c0.2-0.1,0.3-0.3,0.5-0.5c0.1-0.1,0.2-0.3,0.4-0.5c0.2-0.3,0.5-0.6,0.6-0.9c0,0,0,0,0.1-0.1
			c0.1-0.1,0.1-0.2,0.2-0.3c0-0.1,0.1-0.1,0.1-0.2c0,0,0.1-0.1,0.1-0.1c0-0.1,0.1-0.2,0.1-0.2c0.2-0.4,0.5-0.9,0.6-1.3
			c0-0.1,0.1-0.2,0.1-0.3c0,0,0,0,0-0.1c0-0.1,0.1-0.1,0.1-0.2c0.1-0.1,0.1-0.2,0.1-0.4v0c0-0.1,0-0.2,0.1-0.4c0-0.1,0-0.2,0.1-0.4
			c0-0.1,0-0.2,0-0.3c0,0,0,0,0-0.1v-0.1c0-0.3,0-0.5,0-0.8C287.4,345.3,287.4,345.1,287.4,345z M304.9,228.9
			c-1.2,0.2-2.3,0.5-3.5,0.7c-0.6,0.1-1.1,0.2-1.7,0.4c-0.6,0.1-1.1,0.2-1.7,0.4c0.1,0.1,0.1,0.2,0.2,0.3c0.1,0.3,0.2,0.6,0.4,0.8
			c0,0,0.1,0.1,0.1,0.1c0,0,0.1,0.1,0.1,0.1c0,0.1,0.1,0.1,0.1,0.2c0.1,0.1,0.1,0.1,0.2,0.2c4.3,3.8,10.2,3.8,16,0.2
			C312.2,229.6,308.9,228.2,304.9,228.9z M316.4,260.5c0,0,0,0.1,0,0.1C316.4,260.6,316.5,260.6,316.4,260.5
			C316.5,260.6,316.5,260.5,316.4,260.5C316.5,260.5,316.5,260.5,316.4,260.5z M323,248.6c0-0.2,0-0.4-0.1-0.6
			c0-0.2-0.1-0.4-0.1-0.5c0,0,0-0.1,0-0.1c0-0.2-0.1-0.4-0.1-0.6c0-0.2-0.1-0.4-0.2-0.6c-0.1-0.2-0.1-0.5-0.2-0.7
			c-0.3,0.1-0.5,0.2-0.8,0.4c-4.4,2.9-4.9,7.3-4.7,12.1c0,0.3,0,0.6,0,0.9c0,0.2,0,0.3-0.1,0.5c-0.1,0.4-0.2,0.9-0.2,1.4
			c0.7-0.2,1.5-0.5,2.1-0.9c0.2-0.1,0.5-0.2,0.6-0.4c0.1-0.1,0.2-0.1,0.3-0.2c0.1-0.1,0.2-0.1,0.3-0.2c0.1-0.1,0.2-0.2,0.4-0.3
			c0.1-0.1,0.1-0.1,0.2-0.2c0.1-0.1,0.2-0.2,0.2-0.3c0.1-0.2,0.3-0.4,0.5-0.6c0.1-0.2,0.3-0.4,0.4-0.6c0.2-0.4,0.4-0.7,0.6-1.1
			c0-0.1,0.1-0.2,0.1-0.4c0.1-0.1,0.1-0.3,0.2-0.5c0.1-0.2,0.1-0.5,0.2-0.7c0-0.1,0-0.2,0.1-0.4c0-0.2,0.1-0.3,0.1-0.5
			c0-0.1,0.1-0.3,0.1-0.4c0.1-0.4,0.1-0.9,0.2-1.3c0-0.5,0-1,0-1.5C323.2,249.4,323.1,249,323,248.6z M325.4,352.8
			C325.4,352.8,325.4,352.8,325.4,352.8C325.4,352.8,325.4,352.7,325.4,352.8C325.4,352.7,325.4,352.7,325.4,352.8z M334.3,360.1
			c-2.7-2.7-5.9-4.9-8.9-7.3c0,0.1-0.1,0.2-0.1,0.4c0,0.1-0.1,0.2-0.1,0.4c0,0.1-0.1,0.3-0.1,0.4c0,0.1-0.1,0.3-0.1,0.4
			c0,0.2-0.1,0.4-0.1,0.5c-0.4,7.3,4.1,13.6,12.1,16.5C337.6,367.3,337.2,363.2,334.3,360.1z M355,345.8c-0.1,0-0.2,0-0.4,0h-0.4
			c-0.1,0-0.3,0-0.4,0.1c-0.1,0-0.2,0-0.4,0.1c0,0-0.1,0-0.1,0c-0.1,0-0.2,0-0.2,0.1c-0.2,0-0.4,0.1-0.5,0.2
			c-0.2,0.1-0.4,0.1-0.5,0.2c-0.2,0.1-0.3,0.2-0.5,0.2c-0.2,0.1-0.5,0.3-0.7,0.5c-0.1,0.1-0.2,0.1-0.3,0.2c-0.2,0.2-0.4,0.4-0.6,0.6
			c-0.1,0.1-0.1,0.1-0.2,0.2c-0.1,0.1-0.1,0.2-0.2,0.3c-0.1,0.1-0.1,0.2-0.2,0.3c0,0.1-0.1,0.1-0.1,0.2c0,0.1-0.1,0.1-0.1,0.2
			c-0.1,0.1-0.1,0.2-0.1,0.3c0,0,0,0.1,0,0.1c0,0.1-0.1,0.2-0.1,0.3c0,0.1,0,0.2-0.1,0.2c0,0.1,0,0.2,0,0.3c0.6,0,1.1-0.1,1.7-0.2
			c0.1,0,0.3,0,0.5-0.1c0.2,0,0.4,0,0.5-0.1c0.1,0,0.3-0.1,0.5-0.1c0.2-0.1,0.4-0.1,0.6-0.2c0.1,0,0.2-0.1,0.3-0.1
			c0.1-0.1,0.2-0.1,0.4-0.1c0.1-0.1,0.2-0.1,0.3-0.2h0c0.2-0.1,0.4-0.2,0.5-0.3c0.1-0.1,0.1-0.1,0.2-0.2c0.1-0.1,0.1-0.1,0.2-0.2
			c0,0,0.1-0.1,0.1-0.1c0.1-0.1,0.1-0.1,0.2-0.2c0-0.1,0.1-0.1,0.2-0.2c0.1-0.1,0.2-0.3,0.4-0.5c0.1-0.1,0.1-0.2,0.2-0.3
			c0.1-0.1,0.2-0.3,0.2-0.5c0.1-0.1,0.2-0.3,0.3-0.5c0.1-0.2,0.2-0.4,0.2-0.6C355.8,345.8,355.4,345.8,355,345.8z M362.3,310.9v-0.3
			c0-0.1,0-0.2-0.1-0.3c0-0.1,0-0.2,0-0.3c0-0.1-0.1-0.2-0.1-0.4c0-0.1-0.1-0.2-0.1-0.4c0,0,0-0.1,0-0.1c-0.1-0.2-0.2-0.5-0.4-0.7
			c-0.1-0.1-0.1-0.2-0.2-0.4c-0.2-0.2-0.4-0.5-0.6-0.7c-0.2-0.2-0.4-0.4-0.6-0.6c0,0-0.1-0.1-0.1-0.1s-0.1-0.1-0.1-0.1
			c-0.1-0.1-0.1-0.1-0.2-0.2c-0.4-0.3-0.7-0.5-1.2-0.8c0,0.1-0.1,0.3-0.1,0.4c0,0.1-0.1,0.3-0.1,0.4c0,0.2-0.1,0.5-0.1,0.7v0.4
			c0,0.1,0,0.2,0,0.4c0,0.1,0,0.2,0.1,0.2c0,0.1,0,0.2,0.1,0.3c0,0.1,0.1,0.2,0.1,0.2c0.1,0.4,0.3,0.7,0.5,1
			c0.1,0.1,0.1,0.2,0.2,0.3c0,0,0.1,0.1,0.1,0.1l0.1,0.1c0.6,0.6,1.2,1.1,1.9,1.7c0.1,0.1,0.2,0.2,0.4,0.3c0.2,0.1,0.3,0.3,0.5,0.4
			v-0.1c0-0.1,0-0.2,0-0.3c0-0.1,0-0.2,0-0.4v-0.8C362.4,311,362.4,311,362.3,310.9C362.4,311,362.4,311,362.3,310.9z M129.6,316.7
			c0,0-0.1,0-0.1,0h-0.1c0,0-0.1,0-0.1,0.1c0,0.1-0.1,0.2-0.1,0.4c-0.2,0.5-0.4,1.1-0.5,1.6c-0.1,0.2-0.1,0.5-0.2,0.7
			c0,0,0,0.1,0,0.1c0,0.1,0,0.2-0.1,0.4c-0.1,0.4-0.1,0.8-0.2,1.2c0,0.3-0.1,0.6-0.1,1c0,0.1,0,0.3,0,0.5v0.5c0,0.2,0,0.5,0,0.7
			c0,0.4,0,0.8,0.1,1.2c0,0.1,0,0.1,0,0.2v0c0,0.1,0,0.2,0.1,0.3v0c0,0.1,0,0.2,0,0.2c0,0.1,0.1,0.2,0.1,0.4c0,0.1,0,0.1,0,0.2
			c0,0,0,0.1,0,0.1c0,0.1,0.1,0.2,0.1,0.4c0,0.1,0,0.1,0.1,0.2c0,0,0,0.1,0,0.1c0,0,0,0,0,0c0,0.1,0.1,0.1,0.1,0.2c0,0,0,0,0,0.1
			c0,0.1,0,0.1,0.1,0.2c0,0,0,0,0,0.1c0,0.1,0.1,0.2,0.1,0.3c0.1,0.2,0.2,0.4,0.3,0.6c0,0.1,0.1,0.2,0.1,0.2c0,0.1,0.1,0.2,0.1,0.3
			c0,0.1,0.1,0.1,0.1,0.2c0.1,0.2,0.2,0.4,0.4,0.5c0.1,0.1,0.1,0.2,0.2,0.4c0,0,0.1,0.1,0.1,0.1c0.1,0.1,0.1,0.2,0.2,0.3
			c0,0,0.1,0.1,0.1,0.1l0.1,0.1c0.2,0.3,0.5,0.5,0.7,0.8c0.1,0.1,0.1,0.1,0.2,0.2c0.1,0.1,0.2,0.2,0.4,0.4
			C135.3,327.4,134.2,319.9,129.6,316.7z M208.9,260.3C209,260.3,209,260.3,208.9,260.3C209,260.3,209,260.3,208.9,260.3
			C209,260.2,209,260.3,208.9,260.3z M300.8,201.9c-5.1,5.7-4.9,12.6,0.7,22C307.1,217,306.9,210,300.8,201.9z M174,362.1
			c7.9-2.2,11.1-7.4,11.4-18.6C178.1,345.1,172.9,353.6,174,362.1z M200.9,216.4c-7.7,3.7-9.2,9.1-7.3,20.4
			C200.1,234.3,203.3,225.3,200.9,216.4z M378.8,323.4c7.4-0.2,13.4-7.6,13.7-16.7C385.5,307.2,380.4,312.9,378.8,323.4z
			 M375.5,284.8c8.7-1.2,11.5-5.2,13.9-16.9C382.1,268.8,377.3,273.7,375.5,284.8z M155.1,325.8c-1.7,8.5,1.5,13,11.5,18.4
			C168.2,336.9,163.2,328.8,155.1,325.8z M123.9,369.9c8.6,1.3,12.8-2,17.8-12.3C134.5,356,126.6,361.5,123.9,369.9z M276,274.1
			c-2,7.8,2.9,15.7,11.5,18.5C289.4,286.1,284.8,278.7,276,274.1z M112.1,340.2c2.9,7.9,6.8,9.8,17.7,9.9
			C128.1,343.3,121.6,340.2,112.1,340.2z M111.1,258.7c4.8,6.5,9,7,19.7,4.2C127.2,256.8,119.8,255.6,111.1,258.7z M90.1,283.7
			c-0.2,7.3,5,12.8,13.5,14.3C103.8,291.4,98.9,286.2,90.1,283.7z M97.8,248.2c6.4,4.4,10.4,4.1,19.5-2
			C112.4,241.8,102.7,242.8,97.8,248.2z M305.6,289.3c-5.3,3.8-6.6,10.1-3.3,19C308.6,303.8,309.2,298.7,305.6,289.3z M237.5,280.2
			c-1.5,7.6,1.2,11.5,10.2,16.5C249.3,290.5,246.2,284.9,237.5,280.2z M147.7,216.9c-6.2,4-7,9.3-3.7,18.7
			C149.3,232,150.6,225.3,147.7,216.9z M392.9,332.6c-1.3,7.5,2.3,13.1,10.1,16.2C404.4,342.8,401.5,337.4,392.9,332.6z
			 M262.2,206.7c0.4,6.5,7.3,11.5,15.2,11.2C276.2,211.3,269.9,206.7,262.2,206.7z M345.7,317c-4.1,4.5-4.3,10.6,0.8,18.9
			C351.2,330.1,350.8,321.9,345.7,317z M205.6,269.8c-5.2,3.7-6.3,10.3-3.1,18.3C208.3,283.5,209.3,276.9,205.6,269.8z M122.8,217.7
			c0.2,7.4,3.1,10.4,12.8,13.6C135.9,225.1,131.1,220,122.8,217.7z M138.7,297.2c6.7,2.9,10.1,2.4,17.8-5.1
			C150.4,289.2,142.5,291.5,138.7,297.2z M101.5,263.3c-0.8,6,2.9,11.2,11.1,14.5C113.8,271.2,109.1,265,101.5,263.3z M368.2,249.4
			c-5.9,2.8-8.4,10-6.1,17.4C367.6,264.3,369.6,257.1,368.2,249.4z M319,219.8c4.7,4.3,10.6,3.7,18.1-1.7
			C332,214.2,326.4,214.7,319,219.8z M258.6,218.9c-3.8,4.3-4.2,9.9,0.6,17.8C263.9,231.9,263.7,224.9,258.6,218.9z M183,218.4
			c6.4-0.9,11.8-7.6,11.2-13.7C187.4,205.9,185.1,208.5,183,218.4z M229.1,213.2c-6.2,3.6-8.1,9.3-5.8,16.7
			C228.5,227.6,230.8,221.6,229.1,213.2z M165.7,237.7c-2.8,5.4-1,11.7,5,16.9C173.7,248.1,172,242.6,165.7,237.7z M145.2,256.6
			c-1.4,6.9,2.6,13.2,8.6,14C155.1,264.4,151.8,258.9,145.2,256.6z M207.9,214.3c-1.6,6.3,2.2,12.3,9.1,14.5
			C218.2,223.5,215.6,218.3,207.9,214.3z M278.3,246.1c-4.8,3.3-6,9.7-3,17C280.6,259.1,281.6,255,278.3,246.1z M161.5,319.7
			c6,3.1,12.7,1.2,16.6-4.7C172.4,312.4,167,313.9,161.5,319.7z M103,334.9c6.6,0.4,12.2-4.4,12.9-11
			C110.5,323.3,105.8,327.2,103,334.9z M169.4,210.6c-0.1,6.8,2.7,9.4,11.1,12.4C180.7,217,176.7,212.6,169.4,210.6z M235.1,265.3
			c0.7,6.1,4.4,9.1,12.9,10.4C247,269.6,241.4,265.2,235.1,265.3z M200.7,307.5c-3.5,5.4-3.5,8.5,1.9,16.1
			C206.1,319.3,205.4,313.1,200.7,307.5z M83.1,271c1.9,4.9,7.1,7.5,14.7,6.4C95.8,271.9,91,269.8,83.1,271z M84.8,319.9
			c3.7,4.3,9.5,4.6,16.1,1C96.8,316.5,92.2,316.2,84.8,319.9z M291.2,213.2c-5.4,2.3-7.6,8.8-5.1,14.8
			C291.1,225.3,292.9,220.1,291.2,213.2z M270.5,305.2c-4,4.3-4,10.2-0.3,15.9C274.4,317,274.5,312.8,270.5,305.2z M221.6,247.5
			c-1.3,5.6,0.9,9.1,8.3,13.2C231,255.1,227.5,249.7,221.6,247.5z M185,255.5c5.5,4.4,10.4,1.6,15.4-1.6
			C195.7,250.5,189.2,251.2,185,255.5z M242.4,219.9c5.1-0.9,7.8-6.4,7.6-13.1C244.6,207.9,241.7,212.8,242.4,219.9z M324.5,232.1
			c-1.7,5.3,2,12,7.4,13.1C332.9,239.7,330.1,234.9,324.5,232.1z M373.4,297.7c5.3,1.8,9.6-0.2,13.7-6.6
			C382.7,289.2,377.2,291.5,373.4,297.7z M279.7,332.8c5.5,2.3,8.8,1.4,14-4.1C288.7,326.5,282.1,328.5,279.7,332.8z M180.6,199.8
			c-3.6,4.4-3.8,7.7,0.6,14.6C184.6,210.5,184.4,205.5,180.6,199.8z M133.3,346.2c4.8,2.3,8.8,1.2,13.6-4.2
			C143.2,339.8,138,340.6,133.3,346.2z M135,317.9c5.3,1.2,10.4-2.5,11.5-8.1C141.4,309.3,138.2,311.6,135,317.9z M108.8,362.7
			c4.8,2.5,8.7,1.1,13.4-4.4C117.6,356.1,112.3,357.9,108.8,362.7z M286.6,204.5c-5.2,1.3-7.2,3.8-7.9,11.6
			C283.9,214.6,287.3,209.5,286.6,204.5z M328.6,267.5c2.2,4.7,5.1,6,12.6,5.4C339.2,268.2,333.8,266,328.6,267.5z M190.2,274.3
			c5.5-0.8,8.7-4.6,8.8-10.4C194.5,264.1,191.4,268.2,190.2,274.3z M275.9,237.9c1.5,5.3,5.3,7.8,11.3,7.4
			C285.9,240.5,281.9,237.8,275.9,237.9z M293.7,279c4.1,3.2,7.3,3.1,13.2-0.7C302.8,275.3,297.6,275.6,293.7,279z M211.8,238
			c4.1,3.2,7.8,3,13.2-0.7C220.8,234.2,215.4,234.5,211.8,238z M398.5,313.6c-4.3,3.2-5.2,6.9-2.9,12.6
			C399.4,324,400.5,319.1,398.5,313.6z M334,245.9c5.4-0.7,8.1-3.6,8.9-9.4C338.7,236,334.8,240.6,334,245.9z M362.6,343.5
			c0.5,5.2,2.8,7.5,9.2,8.9C371.8,347.9,367.9,344.1,362.6,343.5z M312.8,354.7c-3.4,3.7-3.2,7.3,0.5,13
			C316.2,364,316.1,359.8,312.8,354.7z M344.9,258.8c4.4-1.5,6.5-5.1,6.4-11.3C346.4,249.1,344.1,253.1,344.9,258.8z M231.6,202.3
			c-1.4,4.8,0.4,8.1,6,11.3C239.4,209.2,236.1,205,231.6,202.3z M298.7,351.7c-1.2,4.6,0.2,7.2,6,11
			C306.3,358.9,303.4,353.9,298.7,351.7z M302.2,317.7c-1.1,4.9,0.2,7.4,6,10.9C309.4,324.1,307,319.8,302.2,317.7z M252.5,279.6
			c-1.7,4.4-0.1,7.6,4.9,11.3C259.5,287.2,256.7,281.9,252.5,279.6z M122.4,267.5c-1,4.4,0.9,7.5,6.6,10.4
			C129.7,273.2,127.2,269.4,122.4,267.5z M244.9,244.4c-1.1,5,0.7,8.1,6,10.8C252.1,250.9,249.7,246.6,244.9,244.4z M112.5,229.8
			c-1.5,4.7-0.3,7.6,4.7,11.3C118.8,236.7,116.6,231.6,112.5,229.8z M91,309.6c4.6,0.8,7.6-1.5,9.7-7.3
			C96.4,301.7,93,304.3,91,309.6z M260.4,266.1c4.8,0.4,7.3-2.7,8.9-8.4C264.9,257.7,261.6,260.7,260.4,266.1z M136.3,278.8
			c-3.4,4.6-0.9,8.3,1.7,12.2C140.6,287.1,139.9,282.4,136.3,278.8z M174.5,325.6c3.4,3.4,7.2,3.5,12.3,0.2
			C184.1,322.6,179.1,322.8,174.5,325.6z M373.3,263.3c3.7,3.3,7.2,3.2,12.2-0.3C382.5,259.8,378.1,260.5,373.3,263.3z M167.9,324
			c-0.5,5.2,1.8,8.7,6.7,10.4C175.1,329.8,173.1,326.5,167.9,324z M189.2,306.2c4.9-0.3,7.2-2.4,8.8-8.6
			C193.2,298,189.8,301.4,189.2,306.2z M192.3,345.3c4.6,2.1,8.9,0.6,11.7-3.8C199.8,339.8,196.2,340.9,192.3,345.3z M356.5,276.5
			c3.2,3.9,7.3,4.7,12,2.3C365.8,275.2,362,274.5,356.5,276.5z M106.2,287.2c0,4.3,2.1,7,8.8,8.4
			C114.7,291.2,111.6,288.2,106.2,287.2z M318.3,281.7c3.4,3.3,8.2,3.1,12-0.5C326.8,278.4,322.9,278.6,318.3,281.7z M369.6,307
			c3.5,3.2,7,3.1,12.1-0.4C378.7,303.6,374,303.8,369.6,307z M401.2,326.5c1.8,4.1,5.3,5.2,11.5,3.7
			C410.7,326.4,406.6,325.1,401.2,326.5z M153.7,234.7c-2.8,3.6-2.4,6.9,1.7,12.1C157.8,242.9,157.2,238.7,153.7,234.7z M302,250.7
			c4.7,1.2,7.9-0.5,10.5-5.4C308.9,243.5,304.5,246.6,302,250.7z M167,349c-3.6,1.8-4.8,6.2-3,10.9C167.9,357.4,168.6,354.8,167,349
			z M184.7,297c-3.9,3.2-3.2,7.2-2,11.5C186.3,306.1,187.1,302.6,184.7,297z M155.4,312.2c-3.5,2.3-4.3,5.3-3.1,11
			C156.4,320.8,157.4,317.2,155.4,312.2z M275,227.1c-4.6,1.3-6.2,3.7-6.5,9.6C272.8,235.5,275.5,231.6,275,227.1z M311.3,220.8
			c3.4,0.1,6.8-4.4,6.5-9.4C313.3,212.7,311.6,215.1,311.3,220.8z M331.8,310.1c4.3-0.2,7.3-3.4,7.7-8.1
			C335.2,302.2,333.5,304,331.8,310.1z M346.1,353.7c-2.9,2.9-2.9,5.5-0.1,10.6C348.7,361.2,348.7,357.9,346.1,353.7z M258.7,324.2
			c-0.9,4.3,0.2,6.3,5.2,9.3C264.7,329.4,262.8,326.2,258.7,324.2z M344.9,266.4c-0.4,4,0.9,5.8,6,8.4
			C351.2,270.6,348.9,267.6,344.9,266.4z M337.5,277.3c-3,3.1-3.1,5.9-0.5,10.3C339.7,284.6,339.9,280.7,337.5,277.3z M259.6,242.2
			c1.1,4.1,3.9,5.9,8.4,5.6C267.1,244.1,264.2,242.2,259.6,242.2z M356.6,296.9c1.2,4.2,4.2,6.1,8.5,5.6
			C364.1,299,361.7,297.3,356.6,296.9z M137.9,326.9c0.2,4.7,3.7,5.8,7.3,7C145.4,330.1,142.1,327,137.9,326.9z M175.4,265.9
			c1.1,4.2,3.6,5.9,8.4,5.7C183.2,268.2,180.9,266.6,175.4,265.9z M240.8,235.4c4.4,1.1,6.4-1.8,8.6-5
			C245.5,229.6,242.3,231.6,240.8,235.4z M367.1,357.7c-0.1,3.8,1.2,5.4,6.2,7.2C373.6,361.5,371.2,358.7,367.1,357.7z M384.5,348.8
			c-0.4,3.7,1.4,5.9,6.1,7.3C390.8,352.6,389,350.4,384.5,348.8z M231.2,272.2c-3.4,2-4.4,4.4-3.7,8.8
			C231,279.6,231.9,277.5,231.2,272.2z M202.9,243.3c3.7-0.7,5.2-2.6,5.7-7.2C204.8,237.2,202.9,239.7,202.9,243.3z M154.4,298.2
			c1.5,3.3,3.2,4.1,8.2,3.6C160.8,298.5,158.1,297.3,154.4,298.2z M198.1,303.1c3,2.2,5.1,2.2,9-0.5
			C204,300.5,201.1,300.7,198.1,303.1z M179.7,277.9c-1,3.5-0.2,5.2,3.6,8.1C184.4,282.6,183,279.6,179.7,277.9z M114.8,311.7
			c0.7,3,3.3,4.7,8,3.8C121.3,312.6,119.5,311.7,114.8,311.7z M369.4,338.8c3.5,1.1,6.2-0.3,7.9-4.2
			C373.4,333.9,371.4,336.2,369.4,338.8z M121.5,330.5c1.5,3.8,4.7,3.7,8.1,3.8C128,330.9,125,329.5,121.5,330.5z M371.4,315.1
			c-3.2,1.5-4.3,3.9-3.7,8C370.9,321.8,371.6,320.1,371.4,315.1z M406.9,314.3c-3.2,1.4-4.2,3.9-3.6,7.9
			C406.3,321.5,407.4,318.7,406.9,314.3z M346.5,310.9c3.9,0.6,6-0.6,7.6-4.2C350.8,306.2,348.8,307.2,346.5,310.9z M279.2,266.2
			c1.4,3.2,3.6,4.1,7.8,3.3C285.7,266.5,283,265.4,279.2,266.2z M280.2,302c1.6,3.6,4.7,3.5,8.1,3.3
			C286.4,302,283.4,300.9,280.2,302z M292.2,320.9c0.6,3.5,2,4.6,6.6,5.4C298,322.8,295.8,321,292.2,320.9z M319,317.1
			c-1.2,2.8,0.6,5.8,4,7.3C323.8,321.5,322.7,319.5,319,317.1z M357.3,332.3c-3.1,1.4-4.3,4.4-3.3,7.9
			C357.2,338.6,357.9,336.7,357.3,332.3z M381.2,336.1c1.4,3.1,3,3.8,7.9,3.3C387.4,336.3,385,335.4,381.2,336.1z M325.9,329.7
			c1.5,3.1,3.2,3.8,7.9,3.2C331.9,329.7,329.3,328.7,325.9,329.7z M287.4,359.9c0.9,3.2,3.8,3.9,7.8,3.3
			C293.7,360.2,291.3,359.2,287.4,359.9z M322.6,300.5c2.5,2.2,5.4,2,8-0.5C327.8,298.2,325.8,298.3,322.6,300.5z M355.6,290.6
			c3.7-0.4,5.2-1.9,5.7-5.6C358.4,285.2,357,286.6,355.6,290.6z M271.7,340.9c1.8,2.9,3.6,3.5,7.4,2.4
			C277.4,340.7,275.3,340,271.7,340.9z M133.4,238.3c2.5,2.5,4.3,2.7,7.5,1C138.7,237,136.3,237.3,133.4,238.3z M190.8,247.6
			c3.5,0.5,5.3-0.7,6.4-3.8C194.1,243.3,192.4,245.1,190.8,247.6z M334.1,292.3c-0.7,3.2,1.3,4.8,3.8,6.5
			C338.2,295.4,336.9,293.3,334.1,292.3z M156.1,260.3c2.5,1.9,3.9,1.9,7.3-0.3C161.2,258.1,159.1,258.2,156.1,260.3z M322.4,260.1
			c-2.2,2.5-1,4.9,0.4,7.4C324.7,265,324.5,262.6,322.4,260.1z M174.7,250.1c3.6,0.4,5.1-0.6,6.5-3.9
			C178.1,245.7,176.4,247.5,174.7,250.1z M339.3,330.6c-2.7,1.4-3.5,3.2-3.1,6.4C338.9,335.8,339.5,334.6,339.3,330.6z M236.8,257.4
			c2.8,2.1,4.7,2,7.5-0.4C241.7,255.1,239.4,256.1,236.8,257.4z M231.8,233.4c-0.6,2.9,0.1,4.2,3.6,6.3
			C235.8,236.4,234.8,234.7,231.8,233.4z M193.2,314.7c-2.1,2.4-2.3,4.6-0.6,7.3C194.7,319.9,194.9,318.5,193.2,314.7z M181.6,236.2
			c-1,3.3,1.2,4.9,3.4,6.5C186,240.1,184.9,238.1,181.6,236.2z M173.2,259.1c2.8,1.8,4.4,1.7,7.4-0.4
			C178.3,256.9,176.3,257,173.2,259.1z M212.6,285.6c1.1,3.2,2.6,4.1,6.1,3.9C217.9,286.8,216.2,285.6,212.6,285.6z M248.4,318.5
			c3,0.8,4.9-0.1,6.4-3.2C251.8,314.8,250,315.7,248.4,318.5z M330.3,325.8c3-0.2,3.8-1,5-4.9C332.2,321.4,330.9,322.7,330.3,325.8z
			 M117.8,285.9c3.3,0.9,5.3-0.1,6.7-3.2C121.5,282,119.6,283.6,117.8,285.9z M163.6,310.5c3.3,0.6,4.6-0.1,6.5-3.3
			C166.9,306.7,164.9,307.8,163.6,310.5z M310.8,345.3c3,0,4.4-1.5,4.9-4.8C312.9,340.8,311.7,342,310.8,345.3z M236.6,294.8
			c-2.5,1.4-2.7,3.6-2.5,6.3C236.9,299.4,237.4,298,236.6,294.8z M380.1,355.3c-1.3,2.2-0.5,3.8,0.7,5.8
			C382.3,358.8,381.6,357.1,380.1,355.3z M376.8,348.9c2.6,0.5,3.7-0.1,4.7-2.6C379.2,345.9,377.9,347.3,376.8,348.9z"/>
	</g>
	<g>
		<path class="st34" d="M287.1,165.5c0,3.1,0.2,5.6,0.5,7.5c0.3,1.9,1,3.4,1.9,4.4c0.9,1,2.3,1.7,4,2.1c1.7,0.4,4,0.6,6.9,0.7v4.6
			H261v-4.6c2.8-0.1,5.1-0.3,6.9-0.7c1.7-0.4,3.1-1.1,4.1-2.1c1-1,1.6-2.3,1.9-4.1c0.3-1.8,0.5-4.1,0.5-6.9V140h-49.2v25.5
			c0,3.1,0.2,5.6,0.5,7.5c0.3,1.9,1,3.4,1.9,4.4c0.9,1,2.3,1.7,4,2.1c1.7,0.4,4,0.6,6.9,0.7v4.6h-39.3v-4.6c2.8-0.1,5.1-0.3,6.9-0.7
			c1.7-0.4,3.1-1.1,4.1-2.1c1-1,1.6-2.3,1.9-4.1c0.3-1.8,0.5-4.1,0.5-6.9v-56.6c0-2.8-0.1-5.1-0.4-6.9c-0.3-1.7-0.9-3.1-1.7-4.1
			c-0.8-1-2.1-1.7-3.7-2.1c-1.6-0.4-3.7-0.6-6.3-0.8v-4.6h36.9v4.6c-2.6,0.1-4.7,0.3-6.3,0.7c-1.6,0.4-2.8,1.1-3.6,2.2
			c-0.8,1.1-1.4,2.5-1.7,4.4c-0.3,1.9-0.4,4.3-0.4,7.4V134h49.2v-24.2c0-2.8-0.1-5.1-0.4-6.9c-0.3-1.7-0.9-3.1-1.7-4.1
			c-0.8-1-2.1-1.7-3.7-2.1c-1.6-0.4-3.7-0.6-6.3-0.8v-4.6h36.9v4.6c-2.6,0.1-4.7,0.3-6.3,0.7s-2.8,1.1-3.6,2.2
			c-0.8,1.1-1.4,2.5-1.7,4.4c-0.3,1.9-0.4,4.3-0.4,7.4V165.5z"/>
		<path class="st34" d="M191.6,123h-3.2c-0.2-2.2-0.5-4.1-1.1-5.6c-0.6-1.5-1.4-2.7-2.4-3.5c-1.1-0.9-2.4-1.5-4-1.8
			c-1.6-0.4-3.5-0.5-5.8-0.5c-1.9,0-3.5,0-4.6,0.1c-1.2,0.1-2.1,0.2-2.7,0.4c-0.6,0.2-1,0.5-1.2,0.7c-0.2,0.3-0.3,0.7-0.3,1.1v41.6
			c0,1.7,0.1,3.1,0.4,4.3c0.2,1.2,0.7,2.2,1.4,2.9c0.7,0.8,1.7,1.3,3,1.7s3.1,0.6,5.2,0.7v3H147v-3c2.2-0.1,3.9-0.3,5.3-0.7
			c1.3-0.4,2.4-1,3.1-1.7c0.7-0.8,1.2-1.7,1.4-2.9c0.2-1.2,0.3-2.6,0.3-4.3v-41.6c0-0.5-0.1-0.8-0.3-1.1c-0.2-0.3-0.5-0.5-1.1-0.7
			c-0.5-0.2-1.3-0.3-2.3-0.4c-1-0.1-2.3-0.1-4-0.1c-2,0-3.9,0.1-5.6,0.2c-1.7,0.2-3.2,0.6-4.5,1.4c-1.3,0.8-2.3,1.9-3.1,3.5
			c-0.8,1.6-1.2,3.7-1.2,6.4h-2.9v-14.8h58.7L191.6,123z"/>
		<path class="st34" d="M355.4,123.2c0,2.7-0.4,5.2-1.3,7.4c-0.9,2.2-2.3,4-4.2,5.5c-1.9,1.5-4.4,2.7-7.4,3.5s-6.7,1.2-11.1,1.2h-7
			v15c0,1.9,0.1,3.5,0.3,4.7c0.2,1.2,0.7,2.2,1.5,2.8c0.8,0.7,1.8,1.1,3.3,1.4c1.4,0.2,3.3,0.3,5.6,0.3v3h-27.4v-3
			c1.8-0.1,3.3-0.2,4.4-0.5c1.1-0.3,2-0.7,2.6-1.3c0.6-0.6,1-1.5,1.2-2.6c0.2-1.1,0.3-2.6,0.3-4.4V120c0-1.8-0.1-3.3-0.3-4.4
			c-0.2-1.1-0.5-2-1.1-2.6c-0.5-0.6-1.3-1.1-2.4-1.3c-1-0.2-2.4-0.4-4-0.5v-3H333c7.1,0,12.7,1.3,16.6,4
			C353.5,114.8,355.4,118.4,355.4,123.2z M324.5,136.9h5.5c5.2,0,9-1,11.5-3c2.5-2,3.8-5.3,3.8-9.8c0-4.4-1-7.5-3-9.4
			c-2-1.9-5.1-2.8-9.4-2.8h-7.2c-0.9,0-1.3,0.4-1.3,1.3V136.9z"/>
	</g>
</g>
</svg>
